<?xml version="1.0" encoding="UTF-8" standalone="no"?>
<svg width="608px" height="160px" viewBox="0 0 608 160" version="1.1" xmlns="http://www.w3.org/2000/svg" xmlns:xlink="http://www.w3.org/1999/xlink" xmlns:sketch="http://www.bohemiancoding.com/sketch/ns">
    <!-- Generator: Sketch 3.3.1 (12005) - http://www.bohemiancoding.com/sketch -->
    <title>logomark + wordmark copy 3</title>
    <desc>Created with Sketch.</desc>
    <defs></defs>
    <g id="Page-1" stroke="none" stroke-width="1" fill="none" fill-rule="evenodd" sketch:type="MSPage">
        <g id="logomark-+-wordmark-copy-3" sketch:type="MSLayerGroup" fill="#3C3C3C">
            <g id="logomark" sketch:type="MSShapeGroup">
                <g id="status-bar" transform="translate(0.000000, 144.000000)">
                    <path d="M2,0.996127635 C2,8.18502577 7.81579104,14 14.9984654,14 L145.001535,14 C152.175838,14 158,8.1755955 158,0.996127635 M160,0.996127635 C160,9.28253753 153.278035,16 145.001535,16 L14.9984654,16 C6.71504169,16 0,9.29341489 0,0.996127635 M2,2 L0,0 L160,0 L158,2 M160,2 L0,2" id="Shape"></path>
                </g>
                <path d="M83,70 L83,0 L77,0 L77,146 L83,146 L83,76 L160,76 L160,70 L83,70 Z M0,15.0064867 C0,6.71863293 6.72196489,0 14.9984654,0 L145.001535,0 C153.284958,0 160,6.72491953 160,15.0064867 L160,146 L0,146 L0,15.0064867 Z" id="screen"></path>
            </g>
            <path d="M242,148 C230.854266,147.834568 222.637888,144.967107 217.123457,139.232099 C211.609026,133.497091 208.851852,125.004995 209,113.755556 L209,62 L189,62 L189,47 L209,47 L209,14 L225,14 L225,47 L262,47.0864198 L262,61.9753086 L225,62 L225,113.920988 C225.395062,120.428016 226.994223,125.197927 230.192593,128.230864 C233.390962,131.263801 237.581867,132.780247 242.765432,132.780247 C245.191782,132.780247 247.893812,132.50453 250.871605,131.953086 C253.849398,131.401643 256.882289,130.574491 259.97037,129.471605 L263.279012,144.02963 C259.529199,145.353093 255.862158,146.318104 252.277778,146.924691 C248.693398,147.531279 245.191787,147.834568 241.77284,147.834568 L242,148 Z M295,146 L278.159194,146 L278,47.0864198 L295,47.0864198 L295,63.6296296 C295,63.6296296 304.766165,53.7037202 309.674009,50.3950617 C314.581852,47.0864032 320.344346,45.4320988 326.961663,45.4320988 C332.80696,45.4320988 337.797445,47.0588315 341.933268,50.3123457 C346.069091,53.5658599 349.019267,58.0049101 350.783885,63.6296296 C350.783885,63.6296296 361.922955,53.7037202 366.996231,50.3950617 C372.069507,47.0864032 378.080147,45.4320988 385.02833,45.4320988 C392.748533,45.4320988 398.924603,48.2719881 403.556725,53.9518519 C408.188847,59.6317156 410.504873,67.2690878 410,76.8600006 L410,146 L394,146 L393.961663,79.5111111 C393.961663,72.8937941 392.693363,68.1790264 390.156725,65.3666667 C387.620087,62.5543069 383.980617,61.1481481 379.238206,61.1481481 C374.495796,61.1481481 369.781028,62.5818787 365.093762,65.4493827 C360.406496,68.3168868 356.243163,72.121787 353,76.8641975 L353,146 L336.060428,146 L336.060428,79.5111111 C336.060428,72.8937941 334.792128,68.1790264 332.25549,65.3666667 C329.718852,62.5543069 326.079382,61.1481481 321.336972,61.1481481 C316.594561,61.1481481 311.879793,62.5818787 307.192527,65.4493827 C302.505261,68.3168868 298.341928,72.121787 295,76.8641975 L295,146 Z M438.950487,138.735802 C433.10519,132.55964 430.182585,124.343261 430,114 L430,47 L447,47 L447,110.779999 C446.725795,117.836249 448.3801,123.185167 451.688758,126.824691 C454.997417,130.464216 459.850043,132.283951 466.246783,132.283951 C471.320059,132.283951 476.365688,130.822648 481.38382,127.9 C486.401952,124.977352 491.392437,120.648588 496,114.91358 L496,47.0864198 L513,47 L512.898635,146 L496,146 L496,129.802469 C496,129.802469 485.13364,139.728379 479.894931,143.037037 C474.656222,146.345696 468.783441,148 462.276412,148 C452.571014,148 444.795783,144.911965 438.950487,138.735802 Z M588.657829,146 L564.504742,108.958025 L541.840545,146 L523.477582,146 L556.564001,96.5506173 L524.635606,47 L543.164001,47 L566.159063,82.8197531 L589.484989,47 L607.847952,47 L574.430668,95.5580247 L607.186224,146 L588.657829,146 Z" id="wordmark" sketch:type="MSShapeGroup"></path>
        </g>
    </g>
</svg>