<?xml version="1.0" encoding="UTF-8" standalone="no"?>
<!-- Created with Inkscape (http://www.inkscape.org/) -->

<svg
   xmlns:dc="http://purl.org/dc/elements/1.1/"
   xmlns:cc="http://creativecommons.org/ns#"
   xmlns:rdf="http://www.w3.org/1999/02/22-rdf-syntax-ns#"
   xmlns:svg="http://www.w3.org/2000/svg"
   xmlns="http://www.w3.org/2000/svg"
   xmlns:sodipodi="http://sodipodi.sourceforge.net/DTD/sodipodi-0.dtd"
   xmlns:inkscape="http://www.inkscape.org/namespaces/inkscape"
   width="48px"
   height="48px"
   id="svg2985"
   version="1.1"
   inkscape:version="0.47 r22583"
   sodipodi:docname="filled-xterm.svg"
   sodipodi:version="0.32"
   inkscape:output_extension="org.inkscape.output.svg.inkscape"
   enable-background="new">
  <title
     id="title2983">terminal</title>
  <defs
     id="defs2987">
    <inkscape:perspective
       sodipodi:type="inkscape:persp3d"
       inkscape:vp_x="0 : 24 : 1"
       inkscape:vp_y="0 : 1000 : 0"
       inkscape:vp_z="48 : 24 : 1"
       inkscape:persp3d-origin="24 : 16 : 1"
       id="perspective11" />
  </defs>
  <sodipodi:namedview
     id="base"
     pagecolor="#000000"
     bordercolor="#666666"
     borderopacity="1.0"
     inkscape:pageopacity="0"
     inkscape:pageshadow="2"
     inkscape:zoom="9.8994949"
     inkscape:cx="28.142409"
     inkscape:cy="22.28651"
     inkscape:current-layer="layer2"
     showgrid="true"
     inkscape:grid-bbox="true"
     inkscape:document-units="px"
     inkscape:window-width="961"
     inkscape:window-height="767"
     inkscape:window-x="28"
     inkscape:window-y="33"
     inkscape:window-maximized="0"
     objecttolerance="2">
    <inkscape:grid
       type="xygrid"
       id="grid2988"
       empspacing="5"
       visible="true"
       enabled="false"
       snapvisiblegridlinesonly="true" />
  </sodipodi:namedview>
  <metadata
     id="metadata2990">
    <rdf:RDF>
      <cc:Work
         rdf:about="">
        <dc:format>image/svg+xml</dc:format>
        <dc:type
           rdf:resource="http://purl.org/dc/dcmitype/StillImage" />
        <dc:title>xterm</dc:title>
        <cc:license
           rdf:resource="http://creativecommons.org/licenses/by/3.0/" />
        <dc:creator>
          <cc:Agent>
            <dc:title>Thomas E. Dickey</dc:title>
          </cc:Agent>
        </dc:creator>
        <dc:rights>
          <cc:Agent>
            <dc:title>MIT-X11</dc:title>
          </cc:Agent>
        </dc:rights>
        <dc:description>XTerm icon, in SVG format.</dc:description>
        <dc:date>June 14, 2012</dc:date>
        <dc:source>http://invisible-island.net/xterm/</dc:source>
        <dc:identifier>http://invisible-island.net/xterm/xterm</dc:identifier>
      </cc:Work>
      <cc:License
         rdf:about="http://creativecommons.org/licenses/by/3.0/">
        <cc:permits
           rdf:resource="http://creativecommons.org/ns#Reproduction" />
        <cc:permits
           rdf:resource="http://creativecommons.org/ns#Distribution" />
        <cc:requires
           rdf:resource="http://creativecommons.org/ns#Notice" />
        <cc:requires
           rdf:resource="http://creativecommons.org/ns#Attribution" />
        <cc:permits
           rdf:resource="http://creativecommons.org/ns#DerivativeWorks" />
      </cc:License>
    </rdf:RDF>
  </metadata>
  <g
     inkscape:groupmode="layer"
     id="layer2"
     inkscape:label="Layer"
     style="opacity:1;display:inline">
    <path
       style="fill:none;fill-rule:evenodd;stroke:#000000;stroke-width:1px;stroke-linecap:butt;stroke-linejoin:miter;stroke-opacity:1"
       d="M 6.3639611,36.585276 L 41.51727,36.484261 L 41.51727,42.444161 L 37.47666,46.484771 L 1.4142136,46.484771 L 1.4142136,45.474619 L 6.3639611,36.585276 z"
       id="path2386" />
    <path
       style="fill:none;fill-rule:evenodd;stroke:#000000;stroke-width:1px;stroke-linecap:butt;stroke-linejoin:miter;stroke-opacity:1"
       d="M 36.5,46.5 L 36.5,45.5 L 41,36.5"
       id="path2388" />
    <path
       style="fill:none;fill-rule:evenodd;stroke:#000000;stroke-width:1px;stroke-linecap:butt;stroke-linejoin:miter;stroke-opacity:1"
       d="M 4.5,44.5 L 5.5,44.5"
       id="path2398" />
    <path
       style="fill:none;fill-rule:evenodd;stroke:#000000;stroke-width:1px;stroke-linecap:butt;stroke-linejoin:miter;stroke-opacity:1"
       d="M 7.5,44.5 L 32.5,44.5"
       id="path2400" />
    <path
       style="fill:none;fill-rule:evenodd;stroke:#000000;stroke-width:1px;stroke-linecap:butt;stroke-linejoin:miter;stroke-opacity:1"
       d="M 34.5,44.5 L 35.5,44.5"
       id="path2402" />
    <path
       style="fill:none;fill-rule:evenodd;stroke:#000000;stroke-width:1px;stroke-linecap:butt;stroke-linejoin:miter;stroke-opacity:1"
       d="M 7.5,5.5 L 7.5,29.5 L 9.5,31.5 L 36.5,31.5 L 38.5,29.5 L 38.5,5.5 L 36.5,3.5 L 9.5,3.5 L 7.5,5.5 z"
       id="path2406" />
    <path
       style="fill:none;fill-rule:evenodd;stroke:#000000;stroke-width:1px;stroke-linecap:butt;stroke-linejoin:miter;stroke-opacity:1"
       d="M 5.5,32.5 L 6.5,33.5 L 39.5,33.5 L 40.5,32.5 L 40.5,2.5 L 39.5,1.5 L 6.5,1.5 L 5.5,2.5 L 5.5,32.5 z"
       id="path2408" />
    <path
       style="fill:none;fill-rule:evenodd;stroke:#000000;stroke-width:1px;stroke-linecap:butt;stroke-linejoin:miter;stroke-opacity:1"
       d="M 40.5,32.5 L 41.5,32.5 L 45.5,24.5 L 45.5,6.5 L 41.5,2.5 L 40.5,2.5 L 40.5,32.5 z"
       id="path2410" />
    <path
       style="fill:none;fill-rule:evenodd;stroke:#000000;stroke-width:1px;stroke-linecap:butt;stroke-linejoin:miter;stroke-opacity:1"
       d="M 7.5,38.5 L 7.5,38.5 z"
       id="path2395" />
    <path
       sodipodi:type="arc"
       id="path2413"
       style="fill:#000000;stroke:none"
       sodipodi:cx="7.5"
       sodipodi:cy="38.5"
       sodipodi:rx="0.5"
       sodipodi:ry="0.5"
       d="M 8,38.5 A 0.5,0.5 0 1 1 7,38.5 A 0.5,0.5 0 1 1 8,38.5 z" />
    <path
       sodipodi:type="arc"
       id="path2415"
       style="fill:#000000;stroke:none"
       sodipodi:cx="9.5"
       sodipodi:cy="38.5"
       sodipodi:rx="0.5"
       sodipodi:ry="0.5"
       d="M 10,38.5 A 0.5,0.5 0 1 1 9,38.5 A 0.5,0.5 0 1 1 10,38.5 z" />
    <path
       sodipodi:type="arc"
       id="path2419"
       style="fill:#000000;stroke:none"
       sodipodi:cx="11.5"
       sodipodi:cy="38.5"
       sodipodi:rx="0.5"
       sodipodi:ry="0.5"
       d="M 12,38.5 A 0.5,0.5 0 1 1 11,38.5 A 0.5,0.5 0 1 1 12,38.5 z" />
    <path
       sodipodi:type="arc"
       id="path2421"
       style="fill:#000000;stroke:none"
       sodipodi:cx="13.5"
       sodipodi:cy="38.5"
       sodipodi:rx="0.5"
       sodipodi:ry="0.5"
       d="M 14,38.5 A 0.5,0.5 0 1 1 13,38.5 A 0.5,0.5 0 1 1 14,38.5 z" />
    <path
       sodipodi:type="arc"
       id="path2423"
       style="fill:#000000;stroke:none"
       sodipodi:cx="15.5"
       sodipodi:cy="38.5"
       sodipodi:rx="0.5"
       sodipodi:ry="0.5"
       d="M 16,38.5 A 0.5,0.5 0 1 1 15,38.5 A 0.5,0.5 0 1 1 16,38.5 z" />
    <path
       sodipodi:type="arc"
       id="path2425"
       style="fill:#000000;stroke:none"
       sodipodi:cx="17.5"
       sodipodi:cy="38.5"
       sodipodi:rx="0.5"
       sodipodi:ry="0.5"
       d="M 18,38.5 A 0.5,0.5 0 1 1 17,38.5 A 0.5,0.5 0 1 1 18,38.5 z" />
    <path
       sodipodi:type="arc"
       id="path2427"
       style="fill:#000000;stroke:none"
       sodipodi:cx="19.5"
       sodipodi:cy="38.5"
       sodipodi:rx="0.5"
       sodipodi:ry="0.5"
       d="M 20,38.5 A 0.5,0.5 0 1 1 19,38.5 A 0.5,0.5 0 1 1 20,38.5 z" />
    <path
       sodipodi:type="arc"
       id="path2429"
       style="fill:#000000;stroke:none"
       sodipodi:cx="21.5"
       sodipodi:cy="38.5"
       sodipodi:rx="0.5"
       sodipodi:ry="0.5"
       d="M 22,38.5 A 0.5,0.5 0 1 1 21,38.5 A 0.5,0.5 0 1 1 22,38.5 z" />
    <path
       sodipodi:type="arc"
       id="path2431"
       style="fill:#000000;stroke:none"
       sodipodi:cx="23.5"
       sodipodi:cy="38.5"
       sodipodi:rx="0.5"
       sodipodi:ry="0.5"
       d="M 24,38.5 A 0.5,0.5 0 1 1 23,38.5 A 0.5,0.5 0 1 1 24,38.5 z" />
    <path
       sodipodi:type="arc"
       id="path2433"
       style="fill:#000000;stroke:none"
       sodipodi:cx="25.5"
       sodipodi:cy="38.5"
       sodipodi:rx="0.5"
       sodipodi:ry="0.5"
       d="M 26,38.5 A 0.5,0.5 0 1 1 25,38.5 A 0.5,0.5 0 1 1 26,38.5 z" />
    <path
       sodipodi:type="arc"
       id="path2435"
       style="fill:#000000;stroke:none"
       sodipodi:cx="27.5"
       sodipodi:cy="38.5"
       sodipodi:rx="0.5"
       sodipodi:ry="0.5"
       d="M 28,38.5 A 0.5,0.5 0 1 1 27,38.5 A 0.5,0.5 0 1 1 28,38.5 z" />
    <path
       sodipodi:type="arc"
       id="path2437"
       style="fill:#000000;stroke:none"
       sodipodi:cx="29.5"
       sodipodi:cy="38.5"
       sodipodi:rx="0.5"
       sodipodi:ry="0.5"
       d="M 30,38.5 A 0.5,0.5 0 1 1 29,38.5 A 0.5,0.5 0 1 1 30,38.5 z" />
    <path
       sodipodi:type="arc"
       id="path2439"
       style="fill:#000000;stroke:none"
       sodipodi:cx="31.5"
       sodipodi:cy="38.5"
       sodipodi:rx="0.5"
       sodipodi:ry="0.5"
       d="M 32,38.5 A 0.5,0.5 0 1 1 31,38.5 A 0.5,0.5 0 1 1 32,38.5 z" />
    <path
       sodipodi:type="arc"
       id="path2441"
       style="fill:#000000;stroke:none"
       sodipodi:cx="33.5"
       sodipodi:cy="38.5"
       sodipodi:rx="0.5"
       sodipodi:ry="0.5"
       d="M 34,38.5 A 0.5,0.5 0 1 1 33,38.5 A 0.5,0.5 0 1 1 34,38.5 z" />
    <path
       sodipodi:type="arc"
       id="path2443"
       style="fill:#000000;stroke:none"
       sodipodi:cx="35.5"
       sodipodi:cy="38.5"
       sodipodi:rx="0.5"
       sodipodi:ry="0.5"
       d="M 36,38.5 A 0.5,0.5 0 1 1 35,38.5 A 0.5,0.5 0 1 1 36,38.5 z" />
    <path
       sodipodi:type="arc"
       id="path2445"
       style="fill:#000000;stroke:none"
       sodipodi:cx="37.5"
       sodipodi:cy="38.5"
       sodipodi:rx="0.5"
       sodipodi:ry="0.5"
       d="M 38,38.5 A 0.5,0.5 0 1 1 37,38.5 A 0.5,0.5 0 1 1 38,38.5 z" />
    <path
       sodipodi:type="arc"
       id="path2447"
       style="fill:#000000;stroke:none"
       sodipodi:cx="6.5"
       sodipodi:cy="40.5"
       sodipodi:rx="0.5"
       sodipodi:ry="0.5"
       d="M 7,40.5 A 0.5,0.5 0 1 1 6,40.5 A 0.5,0.5 0 1 1 7,40.5 z" />
    <path
       sodipodi:type="arc"
       id="path2449"
       style="fill:#000000;stroke:none"
       sodipodi:cx="8.5"
       sodipodi:cy="40.5"
       sodipodi:rx="0.5"
       sodipodi:ry="0.5"
       d="M 9,40.5 A 0.5,0.5 0 1 1 8,40.5 A 0.5,0.5 0 1 1 9,40.5 z" />
    <path
       sodipodi:type="arc"
       id="path2451"
       style="fill:#000000;stroke:none"
       sodipodi:cx="10.5"
       sodipodi:cy="40.5"
       sodipodi:rx="0.5"
       sodipodi:ry="0.5"
       d="M 11,40.5 A 0.5,0.5 0 1 1 10,40.5 A 0.5,0.5 0 1 1 11,40.5 z" />
    <path
       sodipodi:type="arc"
       id="path2453"
       style="fill:#000000;stroke:none"
       sodipodi:cx="12.5"
       sodipodi:cy="40.5"
       sodipodi:rx="0.5"
       sodipodi:ry="0.5"
       d="M 13,40.5 A 0.5,0.5 0 1 1 12,40.5 A 0.5,0.5 0 1 1 13,40.5 z" />
    <path
       sodipodi:type="arc"
       id="path2455"
       style="fill:#000000;stroke:none"
       sodipodi:cx="14.5"
       sodipodi:cy="40.5"
       sodipodi:rx="0.5"
       sodipodi:ry="0.5"
       d="M 15,40.5 A 0.5,0.5 0 1 1 14,40.5 A 0.5,0.5 0 1 1 15,40.5 z" />
    <path
       sodipodi:type="arc"
       id="path2457"
       style="fill:#000000;stroke:none"
       sodipodi:cx="16.5"
       sodipodi:cy="40.5"
       sodipodi:rx="0.5"
       sodipodi:ry="0.5"
       d="M 17,40.5 A 0.5,0.5 0 1 1 16,40.5 A 0.5,0.5 0 1 1 17,40.5 z" />
    <path
       sodipodi:type="arc"
       id="path2461"
       style="fill:#000000;stroke:none"
       sodipodi:cx="18.5"
       sodipodi:cy="40.5"
       sodipodi:rx="0.5"
       sodipodi:ry="0.5"
       d="M 19,40.5 A 0.5,0.5 0 1 1 18,40.5 A 0.5,0.5 0 1 1 19,40.5 z" />
    <path
       sodipodi:type="arc"
       id="path2463"
       style="fill:#000000;stroke:none"
       sodipodi:cx="20.5"
       sodipodi:cy="40.5"
       sodipodi:rx="0.5"
       sodipodi:ry="0.5"
       d="M 21,40.5 A 0.5,0.5 0 1 1 20,40.5 A 0.5,0.5 0 1 1 21,40.5 z" />
    <path
       sodipodi:type="arc"
       id="path2465"
       style="fill:#000000;stroke:none"
       sodipodi:cx="22.5"
       sodipodi:cy="40.5"
       sodipodi:rx="0.5"
       sodipodi:ry="0.5"
       d="M 23,40.5 A 0.5,0.5 0 1 1 22,40.5 A 0.5,0.5 0 1 1 23,40.5 z" />
    <path
       sodipodi:type="arc"
       id="path2467"
       style="fill:#000000;stroke:none"
       sodipodi:cx="24.5"
       sodipodi:cy="40.5"
       sodipodi:rx="0.5"
       sodipodi:ry="0.5"
       d="M 25,40.5 A 0.5,0.5 0 1 1 24,40.5 A 0.5,0.5 0 1 1 25,40.5 z" />
    <path
       sodipodi:type="arc"
       id="path2469"
       style="fill:#000000;stroke:none"
       sodipodi:cx="26.5"
       sodipodi:cy="40.5"
       sodipodi:rx="0.5"
       sodipodi:ry="0.5"
       d="M 27,40.5 A 0.5,0.5 0 1 1 26,40.5 A 0.5,0.5 0 1 1 27,40.5 z" />
    <path
       sodipodi:type="arc"
       id="path2471"
       style="fill:#000000;stroke:none"
       sodipodi:cx="28.5"
       sodipodi:cy="40.5"
       sodipodi:rx="0.5"
       sodipodi:ry="0.5"
       d="M 29,40.5 A 0.5,0.5 0 1 1 28,40.5 A 0.5,0.5 0 1 1 29,40.5 z" />
    <path
       sodipodi:type="arc"
       id="path2473"
       style="fill:#000000;stroke:none"
       sodipodi:cx="30.5"
       sodipodi:cy="40.5"
       sodipodi:rx="0.5"
       sodipodi:ry="0.5"
       d="M 31,40.5 A 0.5,0.5 0 1 1 30,40.5 A 0.5,0.5 0 1 1 31,40.5 z" />
    <path
       sodipodi:type="arc"
       id="path2475"
       style="fill:#000000;stroke:none"
       sodipodi:cx="32.5"
       sodipodi:cy="40.5"
       sodipodi:rx="0.5"
       sodipodi:ry="0.5"
       d="M 33,40.5 A 0.5,0.5 0 1 1 32,40.5 A 0.5,0.5 0 1 1 33,40.5 z" />
    <path
       sodipodi:type="arc"
       id="path2477"
       style="fill:#000000;stroke:none"
       sodipodi:cx="34.5"
       sodipodi:cy="40.5"
       sodipodi:rx="0.5"
       sodipodi:ry="0.5"
       d="M 35,40.5 A 0.5,0.5 0 1 1 34,40.5 A 0.5,0.5 0 1 1 35,40.5 z" />
    <path
       sodipodi:type="arc"
       id="path2479"
       style="fill:#000000;stroke:none"
       sodipodi:cx="36.5"
       sodipodi:cy="40.5"
       sodipodi:rx="0.5"
       sodipodi:ry="0.5"
       d="M 37,40.5 A 0.5,0.5 0 1 1 36,40.5 A 0.5,0.5 0 1 1 37,40.5 z" />
    <path
       sodipodi:type="arc"
       id="path2481"
       style="fill:#000000;stroke:none"
       sodipodi:cx="5.5"
       sodipodi:cy="42.5"
       sodipodi:rx="0.5"
       sodipodi:ry="0.5"
       d="M 6,42.5 A 0.5,0.5 0 1 1 5,42.5 A 0.5,0.5 0 1 1 6,42.5 z" />
    <path
       sodipodi:type="arc"
       id="path2483"
       style="fill:#000000;stroke:none"
       sodipodi:cx="7.5"
       sodipodi:cy="42.5"
       sodipodi:rx="0.5"
       sodipodi:ry="0.5"
       d="M 8,42.5 A 0.5,0.5 0 1 1 7,42.5 A 0.5,0.5 0 1 1 8,42.5 z" />
    <path
       sodipodi:type="arc"
       id="path2485"
       style="fill:#000000;stroke:none"
       sodipodi:cx="9.5"
       sodipodi:cy="42.5"
       sodipodi:rx="0.5"
       sodipodi:ry="0.5"
       d="M 10,42.5 A 0.5,0.5 0 1 1 9,42.5 A 0.5,0.5 0 1 1 10,42.5 z" />
    <path
       sodipodi:type="arc"
       id="path2487"
       style="fill:#000000;stroke:none"
       sodipodi:cx="11.5"
       sodipodi:cy="42.5"
       sodipodi:rx="0.5"
       sodipodi:ry="0.5"
       d="M 12,42.5 A 0.5,0.5 0 1 1 11,42.5 A 0.5,0.5 0 1 1 12,42.5 z" />
    <path
       sodipodi:type="arc"
       id="path2489"
       style="fill:#000000;stroke:none"
       sodipodi:cx="13.5"
       sodipodi:cy="42.5"
       sodipodi:rx="0.5"
       sodipodi:ry="0.5"
       d="M 14,42.5 A 0.5,0.5 0 1 1 13,42.5 A 0.5,0.5 0 1 1 14,42.5 z" />
    <path
       sodipodi:type="arc"
       id="path2491"
       style="fill:#000000;stroke:none"
       sodipodi:cx="15.5"
       sodipodi:cy="42.5"
       sodipodi:rx="0.5"
       sodipodi:ry="0.5"
       d="M 16,42.5 A 0.5,0.5 0 1 1 15,42.5 A 0.5,0.5 0 1 1 16,42.5 z" />
    <path
       sodipodi:type="arc"
       id="path2493"
       style="fill:#000000;stroke:none"
       sodipodi:cx="17.5"
       sodipodi:cy="42.5"
       sodipodi:rx="0.5"
       sodipodi:ry="0.5"
       d="M 18,42.5 A 0.5,0.5 0 1 1 17,42.5 A 0.5,0.5 0 1 1 18,42.5 z" />
    <path
       sodipodi:type="arc"
       id="path2495"
       style="fill:#000000;stroke:none"
       sodipodi:cx="19.5"
       sodipodi:cy="42.5"
       sodipodi:rx="0.5"
       sodipodi:ry="0.5"
       d="M 20,42.5 A 0.5,0.5 0 1 1 19,42.5 A 0.5,0.5 0 1 1 20,42.5 z" />
    <path
       sodipodi:type="arc"
       id="path2497"
       style="fill:#000000;stroke:none"
       sodipodi:cx="21.5"
       sodipodi:cy="42.5"
       sodipodi:rx="0.5"
       sodipodi:ry="0.5"
       d="M 22,42.5 A 0.5,0.5 0 1 1 21,42.5 A 0.5,0.5 0 1 1 22,42.5 z" />
    <path
       sodipodi:type="arc"
       id="path2499"
       style="fill:#000000;stroke:none"
       sodipodi:cx="23.5"
       sodipodi:cy="42.5"
       sodipodi:rx="0.5"
       sodipodi:ry="0.5"
       d="M 24,42.5 A 0.5,0.5 0 1 1 23,42.5 A 0.5,0.5 0 1 1 24,42.5 z" />
    <path
       sodipodi:type="arc"
       id="path2501"
       style="fill:#000000;stroke:none"
       sodipodi:cx="25.5"
       sodipodi:cy="42.5"
       sodipodi:rx="0.5"
       sodipodi:ry="0.5"
       d="M 26,42.5 A 0.5,0.5 0 1 1 25,42.5 A 0.5,0.5 0 1 1 26,42.5 z" />
    <path
       sodipodi:type="arc"
       id="path2503"
       style="fill:#000000;stroke:none"
       sodipodi:cx="27.5"
       sodipodi:cy="42.5"
       sodipodi:rx="0.5"
       sodipodi:ry="0.5"
       d="M 28,42.5 A 0.5,0.5 0 1 1 27,42.5 A 0.5,0.5 0 1 1 28,42.5 z" />
    <path
       sodipodi:type="arc"
       id="path2505"
       style="fill:#000000;stroke:none"
       sodipodi:cx="29.5"
       sodipodi:cy="42.5"
       sodipodi:rx="0.5"
       sodipodi:ry="0.5"
       d="M 30,42.5 A 0.5,0.5 0 1 1 29,42.5 A 0.5,0.5 0 1 1 30,42.5 z" />
    <path
       sodipodi:type="arc"
       id="path2507"
       style="fill:#000000;stroke:none"
       sodipodi:cx="31.5"
       sodipodi:cy="42.5"
       sodipodi:rx="0.5"
       sodipodi:ry="0.5"
       d="M 32,42.5 A 0.5,0.5 0 1 1 31,42.5 A 0.5,0.5 0 1 1 32,42.5 z" />
    <path
       sodipodi:type="arc"
       id="path2509"
       style="fill:#000000;stroke:none"
       sodipodi:cx="33.5"
       sodipodi:cy="42.5"
       sodipodi:rx="0.5"
       sodipodi:ry="0.5"
       d="M 34,42.5 A 0.5,0.5 0 1 1 33,42.5 A 0.5,0.5 0 1 1 34,42.5 z" />
    <path
       sodipodi:type="arc"
       id="path2511"
       style="fill:#000000;stroke:none"
       sodipodi:cx="35.5"
       sodipodi:cy="42.5"
       sodipodi:rx="0.5"
       sodipodi:ry="0.5"
       d="M 36,42.5 A 0.5,0.5 0 1 1 35,42.5 A 0.5,0.5 0 1 1 36,42.5 z" />
    <path
       sodipodi:type="arc"
       id="path2513"
       style="fill:#000000;stroke:none"
       sodipodi:cx="4.5"
       sodipodi:cy="44.5"
       sodipodi:rx="0.5"
       sodipodi:ry="0.5"
       d="M 5,44.5 A 0.5,0.5 0 1 1 4,44.5 A 0.5,0.5 0 1 1 5,44.5 z" />
    <path
       sodipodi:type="arc"
       id="path2517"
       style="fill:#000000;stroke:none"
       sodipodi:cx="5.5"
       sodipodi:cy="44.5"
       sodipodi:rx="0.5"
       sodipodi:ry="0.5"
       d="M 6,44.5 A 0.5,0.5 0 1 1 5,44.5 A 0.5,0.5 0 1 1 6,44.5 z" />
    <path
       sodipodi:type="arc"
       id="path2519"
       style="fill:#000000;stroke:none"
       sodipodi:cx="34.5"
       sodipodi:cy="44.5"
       sodipodi:rx="0.5"
       sodipodi:ry="0.5"
       d="M 35,44.5 A 0.5,0.5 0 1 1 34,44.5 A 0.5,0.5 0 1 1 35,44.5 z" />
    <path
       sodipodi:type="arc"
       id="path2521"
       style="fill:#000000;stroke:none"
       sodipodi:cx="35.5"
       sodipodi:cy="44.5"
       sodipodi:rx="0.5"
       sodipodi:ry="0.5"
       d="M 36,44.5 A 0.5,0.5 0 1 1 35,44.5 A 0.5,0.5 0 1 1 36,44.5 z" />
    <path
       sodipodi:type="arc"
       id="path2523"
       style="fill:#000000;stroke:none"
       sodipodi:cx="7.5"
       sodipodi:cy="44.5"
       sodipodi:rx="0.5"
       sodipodi:ry="0.5"
       d="M 8,44.5 A 0.5,0.5 0 1 1 7,44.5 A 0.5,0.5 0 1 1 8,44.5 z" />
    <path
       sodipodi:type="arc"
       id="path2529"
       style="fill:#000000;stroke:none"
       sodipodi:cx="32.5"
       sodipodi:cy="44.5"
       sodipodi:rx="0.5"
       sodipodi:ry="0.5"
       d="M 33,44.5 A 0.5,0.5 0 1 1 32,44.5 A 0.5,0.5 0 1 1 33,44.5 z" />
    <text
       xml:space="preserve"
       style="font-size:14px;font-style:normal;font-variant:normal;font-weight:normal;font-stretch:normal;text-align:start;line-height:125%;writing-mode:lr-tb;text-anchor:start;fill:#000000;fill-opacity:1;stroke:none;stroke-width:1px;stroke-linecap:butt;stroke-linejoin:miter;stroke-opacity:1;font-family:Serif;-inkscape-font-specification:Serif"
       x="9.3944197"
       y="17.392376"
       id="text2446"
       sodipodi:linespacing="125%"><tspan
         sodipodi:role="line"
         id="tspan2448"
         x="9.3944197"
         y="17.392376">X</tspan></text>
    <text
       xml:space="preserve"
       style="font-size:10px;font-style:normal;font-variant:normal;font-weight:normal;font-stretch:normal;text-align:start;line-height:125%;writing-mode:lr-tb;text-anchor:start;fill:#000000;fill-opacity:1;stroke:none;stroke-width:1px;stroke-linecap:butt;stroke-linejoin:miter;stroke-opacity:1;font-family:Bitstream Vera Sans;-inkscape-font-specification:Bitstream Vera Sans"
       x="9.2934036"
       y="27.796949"
       id="text2450"
       sodipodi:linespacing="125%"><tspan
         sodipodi:role="line"
         id="tspan2452"
         x="9.2934036"
         y="27.796949">TERM</tspan></text>
    <path
       style="fill:#ffffff;fill-opacity:1;fill-rule:nonzero;stroke:#ff0000;stroke-width:0.06060915000000000;stroke-miterlimit:4;stroke-opacity:1;stroke-dasharray:none"
       d="m 6.4143258,32.603522 -0.3740542,-0.383067 0,-14.749406 0,-14.7494054 0.3331086,-0.3228616 0.3331087,-0.3228616 16.3145921,0 16.314593,0 0.322861,0.3331086 0.322862,0.3331086 0,14.7481714 0,14.74817 -0.383066,0.374055 -0.383067,0.374054 -16.213441,0 -16.213443,0 -0.3740542,-0.383066 z m 31.4694872,-1.711421 1.188447,-1.185351 0,-12.222844 0,-12.2228439 -1.134774,-1.1380022 -1.134774,-1.1380022 -13.788649,0 -13.7886497,0 -1.1380022,1.1347738 -1.1380022,1.1347739 0,12.2229766 0,12.222976 1.1853501,1.188447 1.1853502,1.188446 13.6876288,0 13.687629,0 1.188446,-1.18535 z"
       id="path2881" />
    <path
       style="fill:#ffffff;fill-opacity:1;fill-rule:nonzero;stroke:#ff0000;stroke-width:0.06060915;stroke-miterlimit:4;stroke-opacity:1;stroke-dasharray:none"
       d="m 8.8917223,30.130797 -0.8311456,-0.835486 0,-11.768397 0,-11.7683973 0.8354858,-0.8311456 0.8354858,-0.8311456 13.2836267,0 13.283626,0 0.831146,0.8354858 0.831145,0.8354858 0,11.7177659 0,11.717766 -0.885881,0.881777 -0.885883,0.881777 -13.23323,0 -13.23323,0 -0.8311457,-0.835486 0,0 z m 4.0175867,-5.528475 0,-3.232488 1.262691,0 1.26269,0 0,-0.454569 0,-0.454568 -3.131473,0 -3.1314725,0 0,0.454568 0,0.454569 1.3131985,0 1.313198,0 0,3.232488 0,3.232488 0.555584,0 0.555584,0 0,-3.232488 z m 8.182236,2.77792 0,-0.454569 -1.818275,0 -1.818275,0 0,-1.262691 0,-1.26269 1.71726,0 1.717259,0 0,-0.454569 0,-0.454569 -1.717259,0 -1.71726,0 0,-1.06066 0,-1.06066 1.818275,0 1.818275,0 0,-0.454569 0,-0.454568 -2.373859,0 -2.373858,0 0,3.687057 0,3.687056 2.373858,0 2.373859,0 0,-0.454568 z m 2.626396,-1.06066 0,-1.515229 0.762631,0 c 0.4705,0 0.87171,0.05641 1.047392,0.147255 0.331088,0.171213 0.724895,0.760966 1.33504,1.999319 l 0.435495,0.883883 0.584302,0 0.584303,0 -0.658618,-1.314341 C 27.446247,25.797581 26.984978,25.023613 26.783445,24.80054 26.581912,24.577466 26.43476,24.382396 26.45644,24.367049 c 0.02168,-0.01535 0.168236,-0.108603 0.325677,-0.207236 0.78936,-0.494513 0.898861,-2.240127 0.189713,-3.024315 -0.09511,-0.105173 -0.354751,-0.287038 -0.576985,-0.404145 -0.351358,-0.185151 -0.618166,-0.218042 -2.045558,-0.252171 l -1.641498,-0.03925 0,3.697438 0,3.697438 0.505076,0 0.505076,0 0,-1.515228 0,0 z m 6.993803,-1.465421 0.02676,-2.980649 0.853988,2.273543 0.853988,2.273542 0.560226,-0.0012 0.560226,-0.0012 0.878701,-2.347411 0.878701,-2.347412 0.0052,3.055712 0.0052,3.055708 0.505077,0 0.505076,0 0,-3.691305 0,-3.691307 -0.766456,0.0295 -0.766457,0.0295 -0.856199,2.272844 c -0.470909,1.250063 -0.888412,2.305669 -0.927784,2.345789 -0.03937,0.04012 -0.338418,-0.641732 -0.664545,-1.515229 -0.326127,-0.873496 -0.726848,-1.940466 -0.89049,-2.371043 l -0.297532,-0.782868 -0.79928,0 -0.799279,0 0,3.687057 0,3.687056 0.554081,0 0.554081,0 0.02676,-2.980649 0,0 z m -17.802435,-7.823162 0,-0.399242 -0.610772,-0.03007 -0.610772,-0.03008 1.141102,-1.688401 c 0.627606,-0.92862 1.163831,-1.688828 1.19161,-1.689351 0.02778,-5.25e-4 0.562028,0.770623 1.187221,1.713655 l 1.136714,1.714605 -0.555876,0 -0.555876,0 0,0.404061 0,0.404061 2.070812,0 2.070813,0 0,-0.404061 0,-0.404061 -0.580837,-0.0026 -0.580838,-0.0026 -1.579671,-2.380468 -1.57967,-2.380469 1.333213,-1.9353376 1.333213,-1.9353376 0.574757,-0.030295 0.574757,-0.030295 0,-0.3990199 0,-0.39902 -1.717259,0 -1.71726,0 0,0.404061 0,0.4040611 0.606092,0 c 0.33335,0 0.606091,0.025001 0.606091,0.055558 0,0.053151 -1.870451,2.831322 -2.027404,3.011291 -0.06313,0.07239 -2.114221,-2.8515489 -2.114221,-3.0139249 0,-0.029108 0.250013,-0.052924 0.555584,-0.052924 l 0.555584,0 0,-0.4040611 0,-0.404061 -2.070813,0 -2.0708128,0 0,0.404061 0,0.4040611 0.5394098,0 0.539409,0 1.483825,2.2263549 1.483824,2.226354 -1.442396,2.113191 -1.442396,2.11319 -0.580838,0.0041 -0.5808378,0.0041 0,0.404061 0,0.404061 1.7172598,0 1.717259,0 0,-0.39924 z"
       id="path2883" />
    <path
       style="fill:#ffffff;fill-opacity:1;fill-rule:nonzero;stroke:#ff0000;stroke-width:0.06060915;stroke-miterlimit:4;stroke-opacity:1;stroke-dasharray:none"
       d="m 23.717941,22.632525 0,-1.262691 0.75557,0 c 1.355891,0 1.968675,0.47897 1.840014,1.438208 -0.103138,0.76895 -0.660777,1.085575 -1.913731,1.08661 l -0.681853,5.63e-4 0,-1.26269 z"
       id="path2885" />
    <path
       style="fill:#ffffff;fill-opacity:1;fill-rule:nonzero;stroke:#ff0000;stroke-width:0.06060915;stroke-miterlimit:4;stroke-opacity:1;stroke-dasharray:none"
       d="m 6.4641484,32.552464 -0.3228616,-0.333108 0,-14.737891 0,-14.7378906 0.2714372,-0.2833194 0.2714372,-0.2833194 16.3266728,0 16.326674,0 0.271437,0.2833194 0.271437,0.2833194 0,14.7481376 0,14.748138 -0.333109,0.322861 -0.333108,0.322862 -16.213578,0 -16.213577,0 -0.3228616,-0.333109 z m 31.4702316,-1.609918 1.238895,-1.235922 0,-12.222844 0,-12.2228447 -1.18535,-1.1884464 -1.185351,-1.1884465 -13.79174,0 -13.79174,0 -1.1853502,1.1884465 -1.1853502,1.1884464 0,12.2198697 0,12.21987 1.2359211,1.238896 1.235921,1.238895 13.6876233,0 13.687625,0 1.238896,-1.23592 z"
       id="path2887" />
    <path
       style="fill:#ffffff;fill-opacity:1;fill-rule:nonzero;stroke:#ff0000;stroke-width:0.06060915;stroke-miterlimit:4;stroke-opacity:1;stroke-dasharray:none"
       d="m 41.098057,17.556508 c -0.003,-7.9587392 0.02906,-14.4704351 0.07129,-14.4704351 0.04223,0 0.905913,0.8300366 1.91929,1.8445258 l 1.842505,1.8445259 -0.0055,8.8378374 -0.0055,8.837837 -1.908306,3.788072 -1.908306,3.788072 -0.0055,-14.470435 z"
       id="path2889" />
    <path
       style="fill:#ffffff;fill-opacity:1;fill-rule:nonzero;stroke:#ff0000;stroke-width:0.06060915;stroke-miterlimit:4;stroke-opacity:1;stroke-dasharray:none"
       d="m 37.05745,45.739764 c 0.003,-0.09723 0.886958,-1.926866 1.964302,-4.065864 l 1.958808,-3.889087 0.0055,2.172825 0.0055,2.172825 -1.895008,1.893039 c -1.042254,1.041171 -1.928663,1.893039 -1.969798,1.893039 -0.04113,0 -0.07232,-0.07955 -0.06929,-0.176777 z"
       id="path2891" />
    <path
       style="fill:#ffffff;fill-opacity:1;fill-rule:nonzero;stroke:#ff0000;stroke-width:0.06060915;stroke-miterlimit:4;stroke-opacity:1;stroke-dasharray:none"
       d="m 1.9996614,45.748431 c 0,-0.09246 1.05393,-2.062949 2.3420668,-4.378863 l 2.3420667,-4.210753 16.6575491,-0.0739 c 9.161652,-0.04064 16.678939,-0.05251 16.705082,-0.02636 0.02614,0.02614 -0.88693,1.916026 -2.029053,4.19974 -1.142122,2.283714 -2.076586,4.266065 -2.076586,4.405226 l 0,0.253019 -16.970563,0 c -15.7618179,0 -16.9705626,-0.01197 -16.9705626,-0.16811 z m 3.9193919,-0.862246 c 0.1562623,-0.156262 0.1562623,-0.611453 0,-0.767716 -0.1327423,-0.132742 -1.5725881,-0.168768 -1.7549322,-0.04391 -0.209415,0.143396 -0.251268,0.453923 -0.09361,0.69454 0.1419104,0.216583 0.2277517,0.238305 0.9417335,0.238305 0.4763276,0 0.8333102,-0.04772 0.9068086,-0.121219 z m 26.9710727,0 c 0.06667,-0.06667 0.121219,-0.239406 0.121219,-0.383858 0,-0.144451 -0.05455,-0.317188 -0.121219,-0.383858 -0.09301,-0.09301 -3.102772,-0.121218 -12.932118,-0.121218 l -12.8108999,0 -0.1150641,0.252538 c -0.086075,0.188915 -0.086075,0.316162 0,0.505077 l 0.1150641,0.252538 12.8108999,0 c 9.829346,0 12.839112,-0.02821 12.932118,-0.121219 z m 3.030458,0 c 0.06667,-0.06667 0.121218,-0.239406 0.121218,-0.383858 0,-0.144451 -0.05455,-0.317188 -0.121218,-0.383858 -0.132742,-0.132742 -1.572588,-0.168768 -1.754932,-0.04391 -0.209416,0.143396 -0.251268,0.453923 -0.09361,0.69454 0.14191,0.216583 0.227751,0.238305 0.941733,0.238305 0.476328,0 0.83331,-0.04772 0.906809,-0.121219 z M 5.8157646,42.930863 c 0.4168038,-0.291941 0.1929086,-0.953917 -0.3226362,-0.953917 -0.553373,0 -0.7390462,0.804379 -0.232703,1.008123 0.3057447,0.123026 0.301748,0.123416 0.5553392,-0.05421 l 0,0 z m 2.1555852,-0.167822 c 0.2463855,-0.460375 -0.1332794,-0.878917 -0.6741395,-0.74317 -0.4422249,0.110991 -0.4604677,0.793677 -0.025508,0.954579 0.3021238,0.111762 0.5700131,0.03082 0.6996478,-0.211409 l 0,0 z m 1.8172482,0.224058 c 0.05239,0 0.1407931,-0.119778 0.1964525,-0.266173 0.1399965,-0.36822 -0.1086912,-0.74398 -0.4923859,-0.74398 -0.3550986,0 -0.5229506,0.166761 -0.5229506,0.519551 0,0.301567 0.3574022,0.631136 0.5883352,0.542519 0.074412,-0.02855 0.1781592,-0.05192 0.2305488,-0.05192 z m 1.987067,-0.05624 c 0.247335,-0.173241 0.304213,-0.631775 0.103288,-0.832699 -0.06667,-0.06667 -0.239406,-0.121218 -0.383858,-0.121218 -0.337951,0 -0.505076,0.171915 -0.505076,0.519551 0,0.239989 0.300193,0.591617 0.505076,0.591617 0.03084,0 0.157091,-0.07076 0.28057,-0.157251 z m 2.020304,0 c 0.247336,-0.173241 0.304214,-0.631775 0.103289,-0.832699 -0.06667,-0.06667 -0.24745,-0.121218 -0.401732,-0.121218 -0.378809,0 -0.632255,0.376096 -0.495621,0.735468 0.08367,0.220073 0.184216,0.290959 0.516272,0.363982 0.02931,0.0064 0.154314,-0.05905 0.277792,-0.145533 l 0,0 z m 2.020305,0 c 0.416804,-0.291941 0.192909,-0.953917 -0.322635,-0.953917 -0.553373,0 -0.739046,0.804379 -0.232703,1.008123 0.305744,0.123026 0.301748,0.123416 0.555338,-0.05421 l 0,0 z m 2.155586,-0.167822 c 0.246385,-0.460375 -0.133279,-0.878917 -0.674139,-0.74317 -0.442226,0.110991 -0.460468,0.793677 -0.02551,0.954579 0.302124,0.111762 0.570013,0.03082 0.699648,-0.211409 l 0,0 z m 1.817248,0.224058 c 0.05239,0 0.140793,-0.119778 0.196453,-0.266173 0.139997,-0.36822 -0.108692,-0.74398 -0.492386,-0.74398 -0.355099,0 -0.522951,0.166761 -0.522951,0.519551 0,0.301567 0.357402,0.631136 0.588335,0.542519 0.07441,-0.02855 0.17816,-0.05192 0.230549,-0.05192 z m 1.987066,-0.05624 c 0.247336,-0.173241 0.304214,-0.631775 0.10329,-0.832699 -0.06667,-0.06667 -0.239407,-0.121218 -0.383858,-0.121218 -0.337952,0 -0.505077,0.171915 -0.505077,0.519551 0,0.239989 0.300193,0.591617 0.505077,0.591617 0.03083,0 0.15709,-0.07076 0.280568,-0.157251 z m 2.020306,0 c 0.247335,-0.173241 0.304213,-0.631775 0.103289,-0.832699 -0.06667,-0.06667 -0.24745,-0.121218 -0.401733,-0.121218 -0.378809,0 -0.632254,0.376096 -0.495621,0.735468 0.08367,0.220073 0.184216,0.290959 0.516273,0.363982 0.02931,0.0064 0.154314,-0.05905 0.277792,-0.145533 z m 2.020305,0 c 0.416804,-0.291941 0.192908,-0.953917 -0.322636,-0.953917 -0.553373,0 -0.739046,0.804379 -0.232703,1.008123 0.305744,0.123026 0.301748,0.123416 0.555339,-0.05421 l 0,0 z m 2.155585,-0.167822 c 0.246386,-0.460375 -0.133279,-0.878917 -0.674139,-0.74317 -0.442226,0.110991 -0.460468,0.793677 -0.02551,0.954579 0.302123,0.111762 0.570012,0.03082 0.699647,-0.211409 l 0,0 z m 1.817249,0.224058 c 0.05239,0 0.140793,-0.119778 0.196452,-0.266173 0.139997,-0.36822 -0.108691,-0.74398 -0.492386,-0.74398 -0.355099,0 -0.522951,0.166761 -0.522951,0.519551 0,0.301567 0.357402,0.631136 0.588335,0.542519 0.07441,-0.02855 0.17816,-0.05192 0.23055,-0.05192 z m 1.987066,-0.05624 c 0.247336,-0.173241 0.304213,-0.631775 0.103289,-0.832699 -0.06667,-0.06667 -0.239406,-0.121218 -0.383858,-0.121218 -0.337952,0 -0.505076,0.171915 -0.505076,0.519551 0,0.239989 0.300193,0.591617 0.505076,0.591617 0.03083,0 0.157091,-0.07076 0.280569,-0.157251 z m 2.020305,0 c 0.247336,-0.173241 0.304213,-0.631775 0.103289,-0.832699 -0.06667,-0.06667 -0.24745,-0.121218 -0.401733,-0.121218 -0.378809,0 -0.632254,0.376096 -0.495621,0.735468 0.08367,0.220073 0.184216,0.290959 0.516273,0.363982 0.02931,0.0064 0.154314,-0.05905 0.277792,-0.145533 z m 2.118543,-0.07283 c 0.175617,-0.135887 0.157809,-0.532072 -0.03247,-0.72235 -0.374702,-0.374702 -1.038792,-0.01151 -0.910872,0.498164 0.100776,0.401524 0.570029,0.513042 0.943341,0.224186 l 0,0 z M 6.8259171,40.910558 c 0.4085065,-0.286129 0.1949327,-0.953917 -0.3050844,-0.953917 -0.2888671,0 -0.5815764,0.284624 -0.5815764,0.565512 0,0.220901 0.3306639,0.545656 0.5555839,0.545656 0.058613,0 0.207598,-0.07076 0.3310769,-0.157251 z m 2.0427816,-0.04478 c 0.1111168,-0.111117 0.2020305,-0.260101 0.2020305,-0.331077 0,-0.248411 -0.315983,-0.57806 -0.5540964,-0.57806 -0.5243442,0 -0.7539984,0.658733 -0.3325644,0.953917 0.2967134,0.207826 0.4414943,0.198356 0.6846303,-0.04478 z m 1.9631173,0.06788 c 0.35644,-0.260635 0.16223,-0.977021 -0.264868,-0.977021 -0.359749,0 -0.5870815,0.19416 -0.5870815,0.501415 0,0.516837 0.4511375,0.768687 0.8519495,0.475606 z m 2.025225,-0.03005 c 0.264744,-0.264744 0.162243,-0.771018 -0.180347,-0.890764 -0.382908,-0.133838 -0.617411,0.02787 -0.659219,0.454595 -0.05182,0.528866 0.473801,0.801934 0.839566,0.436169 l 0,0 z m 1.988858,-0.003 c 0.369928,-0.33478 0.129636,-0.943988 -0.372341,-0.943988 -0.238114,0 -0.554097,0.329649 -0.554097,0.57806 0,0.185132 0.37394,0.533108 0.572884,0.533108 0.09285,0 0.251951,-0.07523 0.353554,-0.167179 l 0,-1e-6 z m 1.980528,0.0099 c 0.408507,-0.286128 0.194933,-0.953916 -0.305084,-0.953916 -0.288868,0 -0.581576,0.284624 -0.581576,0.565512 0,0.220901 0.330664,0.545656 0.555583,0.545656 0.05861,0 0.207599,-0.07076 0.331077,-0.157251 l 0,-10e-7 z m 2.042782,-0.04478 c 0.111117,-0.111117 0.20203,-0.260101 0.20203,-0.331077 0,-0.248411 -0.315982,-0.57806 -0.554097,-0.57806 -0.493057,0 -0.726442,0.554553 -0.389891,0.926437 0.217828,0.240698 0.490314,0.234345 0.741958,-0.0173 z m 1.963117,0.06788 c 0.356441,-0.260635 0.16223,-0.977021 -0.264868,-0.977021 -0.359749,0 -0.587081,0.19416 -0.587081,0.501415 0,0.516837 0.451137,0.768687 0.851949,0.475606 z m 2.025225,-0.03005 c 0.264745,-0.264744 0.162243,-0.771018 -0.180347,-0.890764 -0.382908,-0.133838 -0.617411,0.02787 -0.659219,0.454595 -0.05182,0.528866 0.473802,0.801934 0.839566,0.436169 l 0,0 z m 1.988858,-0.003 c 0.369928,-0.33478 0.129636,-0.943988 -0.37234,-0.943988 -0.238115,0 -0.554097,0.329649 -0.554097,0.57806 0,0.185132 0.373939,0.533108 0.572883,0.533108 0.09285,0 0.251952,-0.07523 0.353554,-0.167179 l 0,-1e-6 z m 1.980528,0.0099 c 0.408507,-0.286128 0.194933,-0.953916 -0.305084,-0.953916 -0.288867,0 -0.581576,0.284624 -0.581576,0.565512 0,0.220901 0.330664,0.545656 0.555584,0.545656 0.05861,0 0.207598,-0.07076 0.331076,-0.157251 l 0,-1e-6 z m 2.042782,-0.04478 c 0.111117,-0.111117 0.202031,-0.260101 0.202031,-0.331077 0,-0.248411 -0.315983,-0.57806 -0.554097,-0.57806 -0.493058,0 -0.726442,0.554553 -0.389892,0.926437 0.217828,0.240698 0.490314,0.234345 0.741958,-0.0173 z m 1.963118,0.06788 c 0.35644,-0.260635 0.162229,-0.977021 -0.264869,-0.977021 -0.359749,0 -0.587081,0.19416 -0.587081,0.501415 0,0.516837 0.451137,0.768687 0.85195,0.475606 z m 2.025224,-0.03005 c 0.264745,-0.264744 0.162244,-0.771018 -0.180347,-0.890764 -0.382908,-0.133838 -0.617411,0.02787 -0.659219,0.454595 -0.05182,0.528866 0.473802,0.801934 0.839566,0.436169 z m 1.988858,-0.003 c 0.369928,-0.33478 0.129636,-0.943988 -0.37234,-0.943988 -0.238114,0 -0.554097,0.329649 -0.554097,0.57806 0,0.185132 0.373939,0.533108 0.572884,0.533108 0.09285,0 0.251951,-0.07523 0.353553,-0.167179 l 0,-10e-7 z m 1.980528,0.0099 c 0.408507,-0.286128 0.194934,-0.953916 -0.305084,-0.953916 -0.288867,0 -0.581576,0.284624 -0.581576,0.565512 0,0.220901 0.330664,0.545656 0.555584,0.545656 0.05861,0 0.207598,-0.07076 0.331076,-0.157251 l 0,-1e-6 z M 7.8758459,38.880325 c 0.101602,-0.09195 0.1847308,-0.271199 0.1847308,-0.398333 0,-0.237795 -0.3359044,-0.545656 -0.5953603,-0.545656 -0.2305032,0 -0.5158075,0.311974 -0.5158075,0.564024 0,0.483979 0.5584272,0.713009 0.926437,0.379965 z m 2.0655134,-0.0895 c 0.2145647,-0.327467 0.062896,-0.718153 -0.3156812,-0.81317 -0.5087821,-0.127696 -0.8714619,0.536871 -0.4972258,0.911107 0.2420233,0.242024 0.6199929,0.196487 0.812907,-0.09794 z m 1.9375937,0.135457 c 0.197395,-0.197394 0.149802,-0.765513 -0.07417,-0.88538 -0.43198,-0.231188 -0.814763,0.0055 -0.814763,0.503718 0,0.430036 0.588073,0.682524 0.888934,0.381662 z m 1.982785,-0.03752 c 0.318123,-0.318121 0.09552,-0.952429 -0.334246,-0.952429 -0.458142,0 -0.717223,0.596876 -0.416411,0.959334 0.164094,0.197721 0.549577,0.194175 0.750657,-0.0069 z m 2.020305,0 c 0.374237,-0.374236 0.01156,-1.038803 -0.497225,-0.911107 -0.143024,0.0359 -0.310404,0.175793 -0.371953,0.31088 -0.239455,0.525545 0.460497,1.008909 0.869178,0.600227 z m 1.994313,-0.0084 c 0.101602,-0.09195 0.184731,-0.271199 0.184731,-0.398333 0,-0.237795 -0.335904,-0.545656 -0.595361,-0.545656 -0.230502,0 -0.515807,0.311974 -0.515807,0.564024 0,0.483979 0.558428,0.713009 0.926437,0.379965 l 0,0 z m 2.065514,-0.0895 c 0.214564,-0.327466 0.0629,-0.718152 -0.315682,-0.813169 -0.508782,-0.127697 -0.871462,0.536871 -0.497225,0.911107 0.242023,0.242024 0.619993,0.196486 0.812907,-0.09794 z m 1.937594,0.135458 c 0.197394,-0.197394 0.149801,-0.765513 -0.07417,-0.88538 -0.43198,-0.231188 -0.814763,0.0055 -0.814763,0.503718 0,0.430036 0.588073,0.682524 0.888935,0.381662 l 0,0 z m 1.982785,-0.03752 c 0.318122,-0.318121 0.09552,-0.952429 -0.334247,-0.952429 -0.458141,0 -0.717223,0.596876 -0.416411,0.959334 0.164094,0.197721 0.549578,0.194175 0.750658,-0.0069 l 0,0 z m 2.020305,0 c 0.374236,-0.374236 0.01156,-1.038803 -0.497226,-0.911107 -0.143024,0.0359 -0.310403,0.175793 -0.371953,0.31088 -0.239455,0.525545 0.460497,1.008909 0.869179,0.600227 z m 1.994312,-0.0084 c 0.101603,-0.09195 0.184731,-0.271199 0.184731,-0.398333 0,-0.237795 -0.335904,-0.545656 -0.595361,-0.545656 -0.230502,0 -0.515807,0.311974 -0.515807,0.564024 0,0.483979 0.558428,0.713009 0.926437,0.379965 l 0,0 z m 2.065514,-0.0895 c 0.214564,-0.327466 0.0629,-0.718152 -0.315682,-0.813169 -0.508781,-0.127697 -0.871461,0.536871 -0.497225,0.911107 0.242023,0.242024 0.619993,0.196486 0.812907,-0.09794 z m 1.937594,0.135458 c 0.197395,-0.197394 0.149801,-0.765513 -0.07417,-0.88538 -0.431979,-0.231188 -0.814762,0.0055 -0.814762,0.503718 0,0.430036 0.588072,0.682524 0.888934,0.381662 l 0,0 z m 1.982785,-0.03752 c 0.318122,-0.318121 0.09552,-0.952429 -0.334247,-0.952429 -0.458141,0 -0.717223,0.596876 -0.416411,0.959334 0.164095,0.197721 0.549578,0.194175 0.750658,-0.0069 z m 2.020305,0 c 0.374236,-0.374236 0.01156,-1.038803 -0.497226,-0.911107 -0.143024,0.0359 -0.310403,0.175793 -0.371953,0.31088 -0.239454,0.525545 0.460497,1.008909 0.869179,0.600227 z m 1.994313,-0.0084 c 0.101602,-0.09195 0.18473,-0.271199 0.18473,-0.398333 0,-0.237795 -0.335904,-0.545656 -0.59536,-0.545656 -0.230503,0 -0.515807,0.311974 -0.515807,0.564024 0,0.483979 0.558427,0.713009 0.926437,0.379965 l 0,0 z"
       id="path2893" />
  </g>
</svg>
