/* XPM */
static char * filled_xterm_32x32_xpm[] = {
"32 32 225 2",
"  	c None",
". 	c #000000",
"+ 	c #D9C2C2",
"@ 	c #EEE5E5",
"# 	c #EBE0E0",
"$ 	c #EBE1E1",
"% 	c #EDE1E1",
"& 	c #918484",
"* 	c #FFEEEE",
"= 	c #F2DCDC",
"- 	c #403838",
"; 	c #5A5A5A",
"> 	c #5B4545",
", 	c #FEF2F2",
"' 	c #E9E9E9",
") 	c #856868",
"! 	c #271D1D",
"~ 	c #FBCFCF",
"{ 	c #746060",
"] 	c #FFFBFB",
"^ 	c #FFFFFF",
"/ 	c #FAF0F0",
"( 	c #5E4949",
"_ 	c #E3DCDC",
": 	c #BAA8A8",
"< 	c #292020",
"[ 	c #F1C0C0",
"} 	c #D9C6C6",
"| 	c #FFECEC",
"1 	c #FFE8E8",
"2 	c #FFFAFA",
"3 	c #FFF0F0",
"4 	c #FFEFEF",
"5 	c #705D5D",
"6 	c #DED5D5",
"7 	c #F9E6E6",
"8 	c #D3C3C3",
"9 	c #392F2F",
"0 	c #FCF6F6",
"a 	c #BAA7A7",
"b 	c #524646",
"c 	c #D9D1D1",
"d 	c #F2EAEA",
"e 	c #796666",
"f 	c #FEF7F7",
"g 	c #BBAAAA",
"h 	c #918383",
"i 	c #1D1515",
"j 	c #EBDADA",
"k 	c #B5B5B5",
"l 	c #FFF4F4",
"m 	c #DDD0D0",
"n 	c #110A0A",
"o 	c #FEFBFB",
"p 	c #D3C7C7",
"q 	c #FFF3F3",
"r 	c #968484",
"s 	c #F2E9E9",
"t 	c #908484",
"u 	c #FFFDFD",
"v 	c #A89191",
"w 	c #776262",
"x 	c #CCB4B4",
"y 	c #9E7979",
"z 	c #705F5F",
"A 	c #FFCCCC",
"B 	c #FFEAEA",
"C 	c #FFE6E6",
"D 	c #FFF1F1",
"E 	c #FFFEFE",
"F 	c #FFE1E1",
"G 	c #FFF2F2",
"H 	c #FFF7F7",
"I 	c #C7B8B8",
"J 	c #AE9494",
"K 	c #5A4848",
"L 	c #C0AFAF",
"M 	c #D1BDBD",
"N 	c #4F3D3D",
"O 	c #513636",
"P 	c #BCB0B0",
"Q 	c #665757",
"R 	c #1A0C0C",
"S 	c #E4DCDC",
"T 	c #FCF3F3",
"U 	c #1F0C0C",
"V 	c #C3C3C3",
"W 	c #726363",
"X 	c #443A3A",
"Y 	c #FFF8F8",
"Z 	c #583D3D",
"` 	c #FCF4F4",
" .	c #615757",
"..	c #6C5656",
"+.	c #A09393",
"@.	c #9B8E8E",
"#.	c #856464",
"$.	c #4A3F3F",
"%.	c #BBBBBB",
"&.	c #C0BCBC",
"*.	c #452F2F",
"=.	c #736C6C",
"-.	c #775656",
";.	c #878787",
">.	c #A38888",
",.	c #624D4D",
"'.	c #C9B4B4",
").	c #F8F0F0",
"!.	c #FFEDED",
"~.	c #604242",
"{.	c #B5A8A8",
"].	c #FAE9E9",
"^.	c #FBF3F3",
"/.	c #BAB2B2",
"(.	c #F8DEDE",
"_.	c #7F6F6F",
":.	c #B5A2A2",
"<.	c #806F6F",
"[.	c #AA8E8E",
"}.	c #FEFDFD",
"|.	c #BD9F9F",
"1.	c #C3B4B4",
"2.	c #E0DCDC",
"3.	c #F9EEEE",
"4.	c #080303",
"5.	c #F3C1C1",
"6.	c #B7A2A2",
"7.	c #4C3A3A",
"8.	c #DFD6D6",
"9.	c #7E6D6D",
"0.	c #FFE9E9",
"a.	c #B39A9A",
"b.	c #BBA5A5",
"c.	c #DEC9C9",
"d.	c #715D5D",
"e.	c #F3DDDD",
"f.	c #8B7979",
"g.	c #060303",
"h.	c #FFEBEB",
"i.	c #EFE9E9",
"j.	c #EAEAEA",
"k.	c #FAEFEF",
"l.	c #D1C3C3",
"m.	c #0B0707",
"n.	c #312222",
"o.	c #584141",
"p.	c #685252",
"q.	c #5D5858",
"r.	c #5F5F5F",
"s.	c #5B5B5B",
"t.	c #5C5858",
"u.	c #473232",
"v.	c #181111",
"w.	c #ECD8D8",
"x.	c #F9EFEF",
"y.	c #DBC6C6",
"z.	c #DEC5C5",
"A.	c #F7EDED",
"B.	c #DCC4C4",
"C.	c #F8EDED",
"D.	c #DEC3C3",
"E.	c #E0C9C9",
"F.	c #DEC1C1",
"G.	c #DBC7C7",
"H.	c #F7E8E8",
"I.	c #E1CACA",
"J.	c #DBC2C2",
"K.	c #F8EFEF",
"L.	c #796868",
"M.	c #422B2B",
"N.	c #B5A3A3",
"O.	c #F8ECEC",
"P.	c #F8EEEE",
"Q.	c #FDF7F7",
"R.	c #FEF9F9",
"S.	c #F7EAEA",
"T.	c #FDF6F6",
"U.	c #F7EBEB",
"V.	c #FDF5F5",
"W.	c #F7EEEE",
"X.	c #F8EBEB",
"Y.	c #786565",
"Z.	c #2C2121",
"`.	c #F6E9E9",
" +	c #F6E8E8",
".+	c #F9EDED",
"++	c #FEFCFC",
"@+	c #F7ECEC",
"#+	c #F7E9E9",
"$+	c #837070",
"%+	c #806C6C",
"&+	c #D4C3C3",
"*+	c #DCC8C8",
"=+	c #DDC2C2",
"-+	c #DBBFBF",
";+	c #E1C8C8",
">+	c #DEC8C8",
",+	c #DEC7C7",
"'+	c #DFC8C8",
")+	c #DEBBBB",
"!+	c #FAEEEE",
"~+	c #221B1B",
"{+	c #3E3131",
"]+	c #F8E8E8",
"^+	c #8D8181",
"/+	c #F6E7E7",
"(+	c #696969",
"_+	c #6D6D6D",
":+	c #6F6C6C",
"<+	c #835D5D",
"[+	c #875D5D",
"}+	c #9D7474",
"|+	c #A27A7A",
"1+	c #958989",
"2+	c #919191",
"3+	c #9D9797",
"4+	c #917E7E",
"5+	c #E3C8C8",
"6+	c #241B1B",
"7+	c #695959",
"8+	c #CEBCBC",
"9+	c #D1D1D1",
"0+	c #CFCBCB",
"a+	c #322424",
"b+	c #201818",
"                                                                ",
"      . + @ # $ $ $ $ $ $ $ $ $ $ $ $ $ $ $ $ $ % @ & .         ",
"      . * = - ; ; ; ; ; ; ; ; ; ; ; ; ; ; ; ; ; > , ' ) !       ",
"      . ~ { ] ^ ^ ^ ^ ^ ^ ^ ^ ^ ^ ^ ^ ^ ^ ^ ^ ^ / ( _ : / <     ",
"      . [ } | 1 1 2 3 1 4 ^ ^ ^ ^ ^ ^ ^ ^ ^ ^ ^ ^ 5 6 : ^ 7 .   ",
"      . [ } 8 9   0 a b * ^ ^ ^ ^ ^ ^ ^ ^ ^ ^ ^ ^ 5 6 : ^ 4 .   ",
"      . [ } ^ c   d e f ^ ^ ^ ^ ^ ^ ^ ^ ^ ^ ^ ^ ^ 5 6 g ^ 4 .   ",
"      . [ } ^ ^ h i j ^ ^ ^ ^ ^ ^ ^ ^ ^ ^ ^ ^ ^ ^ 5 6 k ^ l .   ",
"      . [ } ^ ^ m n | ^ ^ ^ ^ ^ ^ ^ ^ ^ ^ ^ ^ ^ ^ 5 6 k ^ ^ .   ",
"      . [ } ^ o { p   q ^ ^ ^ ^ ^ ^ ^ ^ ^ ^ ^ ^ ^ 5 6 k ^ ^ .   ",
"      . [ } ^ r s ^ t   u ^ ^ ^ ^ ^ ^ ^ ^ ^ ^ ^ ^ 5 6 k ^ ^ .   ",
"      . [ } v w x ^ y z A ^ ^ ^ ^ ^ ^ ^ ^ ^ ^ ^ ^ 5 6 : ^ ^ .   ",
"      . [ } ^ ^ ^ ^ ^ ^ ^ ^ ^ ^ ^ ^ ^ ^ ^ ^ ^ ^ ^ 5 6 : ^ ^ .   ",
"      . [ } B C C C D C C C E F G G ^ l C ^ ^ H ] 5 6 : ^ ^ .   ",
"      . [ } I J K L M N L L E O P Q l B R S T U V 5 6 : ^ ^ .   ",
"      . [ } ^ * W ^ * X ^ Y ^ Z `  .q B ..+.@.#.V 5 6 : ^ ^ .   ",
"      . [ } ^ * W ^ * $.%.&.^ *.=.-.u B ;.>.,.'.V 5 6 : ^ )..   ",
"      . [ } ^ * W ^ * ,.!.!.E ~.^ {.].B ;.^./.(.V 5 6 : ^ _.    ",
"      . [ } ^ q :.^ l <.<.<.E [.^ }.|.3 1.^ ^ B 2.5 6 : 3.4.    ",
"      . 5.6.^ ^ ^ ^ ^ ^ ^ ^ ^ ^ ^ ^ ^ ^ ^ ^ ^ ^ ] 7.8.: 9.      ",
"      . 0.a.b.c.c.c.c.c.c.c.c.c.c.c.c.c.c.c.c.c.d.e.' f.g.      ",
"      . h.2 i.j.j.j.j.j.j.j.j.j.j.j.j.j.j.j.j.j.k.^ l.m.        ",
"        . . . . . . . . . . . . . . . . . . . . . . .           ",
"                                                                ",
"        n.o.p.p.p.p.q.; r.s.; ; ; t.p.p.p.p.p.p.p.p.u..         ",
"      v.w.x.y.z.A.3.} B.C.3.D.E.C.C.F.G.C.H.I.J.C.K.L.M.        ",
"      N.O.P.Q.R.S.S.f T.U.S.V.f W.A.Q.Q.P.P.Q.f O.X._.Y.        ",
"    Z.Y `. +V.f .+A.T.Q.O..+++V.K.@+f f #+A.R.V.`.$+x.%+        ",
"    &+B.X.).*+=+C.#+-+;+C.O.>+,+U.#+'+)+@+#+F.*+!+9.k.~+        ",
"  {+]+^+/+(+_+_+_+_+_+_+_+_+:+<+[+}+|+1+2+3+S.^+4+5+6+          ",
"  7+8+9+9+9+9+9+9+9+9+9+9+9+9+9+9+9+9+9+9+9+9+0+a+b+            ",
"                                                                "};
