/* XPM */
static char * filled_xterm_48x48_xpm[] = {
"48 48 246 2",
"  	c None",
". 	c #000000",
"+ 	c #F6D5D5",
"@ 	c #FFEAEA",
"# 	c #FFD6D6",
"$ 	c #FFD2D2",
"% 	c #FFD3D3",
"& 	c #F8D6D6",
"* 	c #FFEFEF",
"= 	c #FFFFFF",
"- 	c #F6DBDB",
"; 	c #0F0707",
"> 	c #090505",
", 	c #F6DCDC",
"' 	c #FFEEEE",
") 	c #C99999",
"! 	c #030101",
"~ 	c #F7DEDE",
"{ 	c #150B0B",
"] 	c #E3C5C5",
"^ 	c #FFEDED",
"/ 	c #E4CBCB",
"( 	c #140B0B",
"_ 	c #F7DDDD",
": 	c #E0C9C9",
"< 	c #080303",
"[ 	c #FFD9D9",
"} 	c #0D0707",
"| 	c #E5CACA",
"1 	c #E5CBCB",
"2 	c #0B0606",
"3 	c #FFDCDC",
"4 	c #E2CECE",
"5 	c #090303",
"6 	c #E1CBCB",
"7 	c #9F8A8A",
"8 	c #3B2929",
"9 	c #312020",
"0 	c #FFD5D5",
"a 	c #ECC8C8",
"b 	c #402525",
"c 	c #351F1F",
"d 	c #663E3E",
"e 	c #E6DBDB",
"f 	c #FFFAFA",
"g 	c #FFFEFE",
"h 	c #8C7272",
"i 	c #B4A1A1",
"j 	c #A69494",
"k 	c #D8C0C0",
"l 	c #675353",
"m 	c #FFFDFD",
"n 	c #584545",
"o 	c #E1BFBF",
"p 	c #3C2929",
"q 	c #FCF3F3",
"r 	c #F6EAEA",
"s 	c #160F0F",
"t 	c #E9D3D3",
"u 	c #6E5C5C",
"v 	c #D6BABA",
"w 	c #CBBBBB",
"x 	c #0D0808",
"y 	c #F8E8E8",
"z 	c #FFE2E2",
"A 	c #F4EDED",
"B 	c #FFF2F2",
"C 	c #4B3A3A",
"D 	c #FFFBFB",
"E 	c #AD9292",
"F 	c #FFE1E1",
"G 	c #A28E8E",
"H 	c #CCBDBD",
"I 	c #8B7777",
"J 	c #231515",
"K 	c #ECCECE",
"L 	c #FFDADA",
"M 	c #251414",
"N 	c #9A8686",
"O 	c #FFF1F1",
"P 	c #FFECEC",
"Q 	c #FFE4E4",
"R 	c #FFDFDF",
"S 	c #FFDBDB",
"T 	c #FFF0F0",
"U 	c #FFDDDD",
"V 	c #FFEBEB",
"W 	c #FFF4F4",
"X 	c #FFE5E5",
"Y 	c #FFDEDE",
"Z 	c #B29E9E",
"` 	c #A08F8F",
" .	c #8A7373",
"..	c #1C1111",
"+.	c #D7CACA",
"@.	c #645555",
"#.	c #5E4B4B",
"$.	c #FFF7F7",
"%.	c #BD9F9F",
"&.	c #392B2B",
"*.	c #A19090",
"=.	c #867474",
"-.	c #9C8D8D",
";.	c #A99494",
">.	c #0E0606",
",.	c #FFE9E9",
"'.	c #D5C6C6",
").	c #564545",
"!.	c #FFE7E7",
"~.	c #5B3D3D",
"{.	c #352121",
"].	c #5B4242",
"^.	c #FFD7D7",
"/.	c #E7D2D2",
"(.	c #1F1313",
"_.	c #786363",
":.	c #AC9191",
"<.	c #FFE8E8",
"[.	c #DBC7C7",
"}.	c #897474",
"|.	c #574E4E",
"1.	c #999999",
"2.	c #FFF6F6",
"3.	c #170F0F",
"4.	c #3B2B2B",
"5.	c #190E0E",
"6.	c #C7B6B6",
"7.	c #5F4D4D",
"8.	c #F6E1E1",
"9.	c #FCE9E9",
"0.	c #F1EAEA",
"a.	c #FEFAFA",
"b.	c #3D2828",
"c.	c #382626",
"d.	c #947D7D",
"e.	c #FFFCFC",
"f.	c #B09B9B",
"g.	c #C2B2B2",
"h.	c #EEDADA",
"i.	c #FDEFEF",
"j.	c #0B0505",
"k.	c #DACACA",
"l.	c #7D6565",
"m.	c #C6A7A7",
"n.	c #FDF9F9",
"o.	c #6C4D4D",
"p.	c #AB9797",
"q.	c #927B7B",
"r.	c #FCEDED",
"s.	c #0A0404",
"t.	c #120B0B",
"u.	c #E8D1D1",
"v.	c #E2CACA",
"w.	c #0F0808",
"x.	c #907979",
"y.	c #F9DFDF",
"z.	c #1D1111",
"A.	c #E8D0D0",
"B.	c #E1C8C8",
"C.	c #1A0C0C",
"D.	c #F8E0E0",
"E.	c #F7D4D4",
"F.	c #090404",
"G.	c #FAE1E1",
"H.	c #100A0A",
"I.	c #100808",
"J.	c #7C4F4F",
"K.	c #F6D3D3",
"L.	c #FFD8D8",
"M.	c #F8D5D5",
"N.	c #AF9393",
"O.	c #FDE5E5",
"P.	c #FDE9E9",
"Q.	c #FDE2E2",
"R.	c #FDF8F8",
"S.	c #FDE6E6",
"T.	c #FEECEC",
"U.	c #FEE5E5",
"V.	c #FFE6E6",
"W.	c #F8D1D1",
"X.	c #0D0404",
"Y.	c #291D1D",
"Z.	c #583030",
"`.	c #FFF8F8",
" +	c #683737",
".+	c #5B3333",
"++	c #582D2D",
"@+	c #593030",
"#+	c #5D3232",
"$+	c #5A2D2D",
"%+	c #663737",
"&+	c #5B3030",
"*+	c #897272",
"=+	c #996F6F",
"-+	c #DBC1C1",
";+	c #110808",
">+	c #FDDDDD",
",+	c #473636",
"'+	c #563232",
")+	c #FFF5F5",
"!+	c #5C3636",
"~+	c #FFF9F9",
"{+	c #582E2E",
"]+	c #6F4040",
"^+	c #5B3434",
"/+	c #6D3E3E",
"(+	c #5A3333",
"_+	c #EFD7D7",
":+	c #FCEFEF",
"<+	c #140A0A",
"[+	c #6A5252",
"}+	c #583333",
"|+	c #5C2A2A",
"1+	c #653737",
"2+	c #6B3C3C",
"3+	c #643434",
"4+	c #6A3C3C",
"5+	c #613535",
"6+	c #9C8787",
"7+	c #907A7A",
"8+	c #DDC3C3",
"9+	c #F8E5E5",
"0+	c #FDF3F3",
"a+	c #190D0D",
"b+	c #FAEAEA",
"c+	c #DCC4C4",
"d+	c #876E6E",
"e+	c #461F1F",
"f+	c #472020",
"g+	c #261414",
"h+	c #070000",
"i+	c #220000",
"j+	c #230101",
"k+	c #3A1818",
"l+	c #3F1D1D",
"m+	c #3E1E1E",
"n+	c #553333",
"o+	c #724646",
"p+	c #431F1F",
"q+	c #AB8F8F",
"r+	c #887171",
"s+	c #DAC0C0",
"t+	c #FBD1D1",
"u+	c #1A1010",
"v+	c #B27C7C",
"w+	c #020101",
"                                                                                                ",
"            . . . . . . . . . . . . . . . . . . . . . . . . . . . . . . . . . .                 ",
"          . + @ @ # $ $ $ $ $ $ $ $ $ $ $ $ $ $ $ $ $ $ $ $ $ $ $ $ $ $ % @ @ & . .             ",
"          . * = - ; . . . . . . . . . . . . . . . . . . . . . . . . . . > , = ' . ) !           ",
"          . * ~ { ] ^ ^ ^ ^ ^ ^ ^ ^ ^ ^ ^ ^ ^ ^ ^ ^ ^ ^ ^ ^ ^ ^ ^ ^ ^ ^ / ( _ ' . ^ : <         ",
"          . [ } | = = = = = = = = = = = = = = = = = = = = = = = = = = = = 1 2 3 . ^ = 4 5       ",
"          . [ . * = = = = = = = = = = = = = = = = = = = = = = = = = = = = * . [ . ^ = = 6 .     ",
"          . [ . * 7 8 9   0 = a b c d = = = = = = = = = = = = = = = = = = * . [ . ' = = * .     ",
"          . [ . * = e     f = g h i = = = = = = = = = = = = = = = = = = = * . [ . ' = = * .     ",
"          . [ . * = = j     = k l g = = = = = = = = = = = = = = = = = = = * . [ . ' = = * .     ",
"          . [ . * = = m n   o p q = = = = = = = = = = = = = = = = = = = = * . [ . ' = = * .     ",
"          . [ . * = = = r s . t = = = = = = = = = = = = = = = = = = = = = * . [ . ' = = * .     ",
"          . [ . * = = = = u . v = = = = = = = = = = = = = = = = = = = = = * . [ . ' = = * .     ",
"          . [ . * = = = w     x y = = = = = = = = = = = = = = = = = = = = * . [ . z = = * .     ",
"          . [ . * = = A   B B   C D = = = = = = = = = = = = = = = = = = = * . [ . ' = = * .     ",
"          . [ . * = = E z = = F   G = = = = = = = = = = = = = = = = = = = * . [ . ' = = * .     ",
"          . [ . * H I J K = = L M } N O = = = = = = = = = = = = = = = = = * . [ . ' = = * .     ",
"          . [ . * P Q Q R = = S Q Q Q T = = = = = = = = = = = = = = = = = * . [ . ' = = * .     ",
"          . [ . * = = = = = = = = = = = = = = = = = = = = = = = = = = = = * . [ . ' = = * .     ",
"          . [ . * = = = = = = = = = = = = = = = = = = = = = = = = = = = = * . [ . ' = = * .     ",
"          . [ . * [ U U U U U V z U U U U W X   Y X ^ = = V U O = = O F ' * . [ . ' = = * .     ",
"          . [ . * Z `  ...` Q +.@.#.` ` Q $.%.&.*.=.  ^ = -.    = = ;.>.,.* . [ . ' = = * .     ",
"          . [ . * = = '.  = = =   Q = = = = %.  = = ).!.= -.~.  f f {.].,.* . [ . ' = = * .     ",
"          . [ . * = = '.  = = =     U U ^.= %.  ^ /.(.' = -._.:.<.[.}.@.,.* . [ . ' = = * .     ",
"          . [ . * = = '.  = = = @.|.1.1.2.= %.3.4.5.  = = -.  6.  7.8.@.,.* . [ . ' = = 9..     ",
"          . [ . * = = '.  = = =   Q = = = = %.  = 0.  ' = -.  a.b.c.f @.,.* . [ . ' = = d..     ",
"          . [ . * = = '.  = = =   0 ^ ^ ^ e.%.  = = f.  m -.  = g.h.= @.,.* . [ . ' = i.j.      ",
"          . [ . * = = k.  = = = l.9 9 9   ' m.  = = n.o.z p.  = = = = l.X * . [ . ' = q..       ",
"          . [ . * = = = = = = = = = = = = = = = = = = = = = = = = = = = = * . [ . ' r.s.        ",
"          . 3 t.u.= = = = = = = = = = = = = = = = = = = = = = = = = = = = v.w.S . ' x..         ",
"          . * y.z.A.^ ^ ^ ^ ^ ^ ^ ^ ^ ^ ^ ^ ^ ^ ^ ^ ^ ^ ^ ^ ^ ^ ^ ^ ^ ^ B.C.D.' . E.F.          ",
"          . * = G.H.. . . . . . . . . . . . . . . . . . . . . . . . . . I.D.= ' . J..           ",
"          . K.P P # $ $ $ $ $ $ $ $ $ $ $ $ $ $ $ $ $ $ $ $ $ $ $ $ $ $ L.P P M.. .             ",
"            . . . . . . . . . . . . . . . . . . . . . . . . . . . . . . . . . .                 ",
"                                                                                                ",
"                                                                                                ",
"            . . . . . . . . . . . . . . . . . . . . . . . . . . . . . . . . . . . .             ",
"          . N.O.P.O.P.Q.R.S.P.O.P.O.P.O.T.U.T.U.T.,.^ ,.^ ,.^ V.^ ,.= D W ,.^ W.X..             ",
"          Y.W Z.`. +e..+e.++D @+$.Z.`. +e.#+e.$+D @+$.Z.`.%+e.#+e.$+e.&+$.Z.D *+=+.             ",
"        . -+D f e.m D `.= D e.D D f D m D `.= D e.D D f D m D `.= D e.D D f r.;+>+.             ",
"        ,+`.'+)+!+~+{+= ]+f .+`.Z.)+^+~+{+= /+f .+`.Z.)+^+~+{+= /+f (+`.Z.f q.q.T .             ",
"      . _+m f = D m ~+e.`.m f m f = D m ~+e.`.m f e.f = D m ~+e.`.m f m f :+<+i.T .             ",
"    . [+~+}+)+|+~+1+g 2+g 3+`.}+)+|+~+1+g 4+= 3+`.}+)+|+~+1+g 4+= 3+~+5+e.6+7+= 8+.             ",
"    ! 9+= ~+= T ' @ ' ,.' <.' <.' ' ' @ e.f = ~+= ~+= = = D = f = ~+= = 0+a+b+c+!               ",
"  . d+m e+f+e.g+. . . . . . . . . . . . h+i+i+j+k+l+l+c m+l+l+n+o+e.e+p+q+r+s+!                 ",
"  . t+* @ @ P S [ L S S S S S S S S S S z ^ ^ ^ ^ ^ ^ ^ ^ ^ ^ ^ ^ ^ P z u+v+w+                  ",
"  . . . . . . . . . . . . . . . . . . . . . . . . . . . . . . . . . . . . .                     ",
"                                                                                                "};
