/* XPM */
static char * filled_xterm_16x16_xpm[] = {
"16 16 110 2",
"  	c None",
". 	c #BAA9A9",
"+ 	c #C59C9C",
"@ 	c #C49999",
"# 	c #C6AAAA",
"$ 	c #4D4242",
"% 	c #F0E4E4",
"& 	c #CEBABA",
"* 	c #D5BEBE",
"= 	c #C6B5B5",
"- 	c #CEBEBE",
"; 	c #796D6D",
"> 	c #DEC5C5",
", 	c #B19B9B",
"' 	c #C6B8B8",
") 	c #B19696",
"! 	c #EBE5E5",
"~ 	c #FFFFFF",
"{ 	c #D6D6D6",
"] 	c #D0BDBD",
"^ 	c #FFF4F4",
"/ 	c #FEFDFD",
"( 	c #706969",
"_ 	c #CCC3C3",
": 	c #FFF0F0",
"< 	c #978989",
"[ 	c #A9A5A5",
"} 	c #A7A3A3",
"| 	c #E3E1E1",
"1 	c #DACBCB",
"2 	c #DEDEDE",
"3 	c #FFF8F8",
"4 	c #FFF6F6",
"5 	c #FFFCFC",
"6 	c #FFFEFE",
"7 	c #D2D2D2",
"8 	c #9C9C9C",
"9 	c #9B8787",
"0 	c #B3A0A0",
"a 	c #FFD5D5",
"b 	c #D4C2C2",
"c 	c #FFE7E7",
"d 	c #7A6F6F",
"e 	c #786F6F",
"f 	c #C2C2C2",
"g 	c #B4B4B4",
"h 	c #FFE3E3",
"i 	c #E1CECE",
"j 	c #FED8D8",
"k 	c #908888",
"l 	c #878080",
"m 	c #898383",
"n 	c #F3ECEC",
"o 	c #D8C2C2",
"p 	c #FFFAFA",
"q 	c #FFF2F2",
"r 	c #FFF9F9",
"s 	c #EFEFEF",
"t 	c #FEFEFE",
"u 	c #C8C3C3",
"v 	c #D2BFBF",
"w 	c #8A8383",
"x 	c #FCE5E5",
"y 	c #D9B6B6",
"z 	c #DDBCBC",
"A 	c #BCA0A0",
"B 	c #F0D2D2",
"C 	c #AB9C9C",
"D 	c #000000",
"E 	c #B0A2A2",
"F 	c #AE9F9F",
"G 	c #C6ABAB",
"H 	c #B48E8E",
"I 	c #C8ABAB",
"J 	c #C39A9A",
"K 	c #D0B2B2",
"L 	c #C3A0A0",
"M 	c #CFB2B2",
"N 	c #C59999",
"O 	c #CCC1C1",
"P 	c #3C3535",
"Q 	c #A39C9C",
"R 	c #FAEDED",
"S 	c #FEFCFC",
"T 	c #F9F2F2",
"U 	c #FEF7F7",
"V 	c #FAEBEB",
"W 	c #FEFAFA",
"X 	c #F9F1F1",
"Y 	c #FEF4F4",
"Z 	c #FAEFEF",
"` 	c #EBE0E0",
" .	c #DFB9B9",
"..	c #E8E3E3",
"+.	c #BBB0B0",
"@.	c #BBA9A9",
"#.	c #CEC8C8",
"$.	c #BCADAD",
"%.	c #CDC8C8",
"&.	c #C78D8D",
"*.	c #E3B2B2",
"=.	c #E3BCBC",
"-.	c #BBAAAA",
";.	c #746C6C",
">.	c #858585",
",.	c #8A7F7F",
"'.	c #977878",
").	c #A38686",
"!.	c #A78686",
"~.	c #201717",
"    . + @ @ @ @ @ @ @ @ # $     ",
"    % & * * * * * * * * = - ;   ",
"    > , ' ) ! ~ ~ ~ ~ ~ { ] ^   ",
"    > / ( _ ~ ~ ~ ~ ~ ~ { ] :   ",
"    > ~ < [ ~ ~ ~ ~ ~ ~ { ] :   ",
"    > } | 1 2 ~ ~ ~ ~ ~ { ] :   ",
"    > ~ ~ 3 ~ 4 4 5 6 4 7 ] :   ",
"    > 7 8 9 0 a b c d e f ] :   ",
"    > ~ g h i j k c l m f ] n   ",
"    o ~ ~ p ~ q 6 r s t u v w   ",
"    x y z z z z z z A z B C     ",
"                    D           ",
"    E F G H I J K L M N O P     ",
"  Q R S T U V W X Y Z U ` Q     ",
"   ...+._ @.#.$.%.&.*.=.-.;.    ",
"  >.>.>.,.'.).).).).).!.~.      "};
