/* XPM */
static char * mini_xterm_48x48_xpm[] = {
"48 48 213 2",
"  	c None",
". 	c #FF0000",
"+ 	c #FF5300",
"@ 	c #FF5E00",
"# 	c #FF4800",
"$ 	c #FF4200",
"% 	c #FF4000",
"& 	c #FF4B00",
"* 	c #FF5200",
"= 	c #FF5400",
"- 	c #FF3500",
"; 	c #FF5100",
"> 	c #FF5C00",
", 	c #FF3000",
"' 	c #FF4500",
") 	c #FF2000",
"! 	c #FF0300",
"~ 	c #FF1600",
"{ 	c #FF5D00",
"] 	c #FF3800",
"^ 	c #FF0200",
"/ 	c #FF0900",
"( 	c #FF2B00",
"_ 	c #FF3300",
": 	c #FF1A00",
"< 	c #FF1300",
"[ 	c #FF1200",
"} 	c #FF5700",
"| 	c #4577BA",
"1 	c #874E78",
"2 	c #887577",
"3 	c #887E77",
"4 	c #887977",
"5 	c #875078",
"6 	c #566CA9",
"7 	c #5E70A1",
"8 	c #884E77",
"9 	c #887677",
"0 	c #7C5B83",
"a 	c #795686",
"b 	c #008DFE",
"c 	c #0012F3",
"d 	c #000BF2",
"e 	c #008FFE",
"f 	c #006CFA",
"g 	c #0000F1",
"h 	c #0001F1",
"i 	c #0020F4",
"j 	c #0040F6",
"k 	c #0959F0",
"l 	c #1158E8",
"m 	c #1159E8",
"n 	c #0058F9",
"o 	c #001DF4",
"p 	c #0023F4",
"q 	c #005BFA",
"r 	c #0060FA",
"s 	c #0E58EB",
"t 	c #0651F3",
"u 	c #0033F5",
"v 	c #000EF2",
"w 	c #006EFA",
"x 	c #0092FF",
"y 	c #001FF4",
"z 	c #000FF2",
"A 	c #0C51EC",
"B 	c #326AC9",
"C 	c #7A6583",
"D 	c #CA6234",
"E 	c #FC5F03",
"F 	c #FF5800",
"G 	c #FF0800",
"H 	c #F4060B",
"I 	c #007CFB",
"J 	c #0013F3",
"K 	c #007EFB",
"L 	c #FF1800",
"M 	c #F3590C",
"N 	c #AB6152",
"O 	c #4F4EAD",
"P 	c #175CE4",
"Q 	c #0036F5",
"R 	c #0022F4",
"S 	c #0095FD",
"T 	c #0084FD",
"U 	c #0004F1",
"V 	c #0051F8",
"W 	c #345AC7",
"X 	c #E61519",
"Y 	c #FF5900",
"Z 	c #FF4600",
"` 	c #FF0100",
" .	c #446EB9",
"..	c #0034F6",
"+.	c #0032F5",
"@.	c #FF2200",
"#.	c #006FFA",
"$.	c #002DF5",
"%.	c #0086FD",
"&.	c #0046F7",
"*.	c #0015F3",
"=.	c #0076FC",
"-.	c #FF0400",
";.	c #FF2300",
">.	c #FF2900",
",.	c #9E3E61",
"'.	c #0039F6",
").	c #FF2A00",
"!.	c #FF4300",
"~.	c #0071FB",
"{.	c #005EF9",
"].	c #004DF7",
"^.	c #008CFE",
"/.	c #0008F2",
"(.	c #001DF3",
"_.	c #007DFB",
":.	c #FF4100",
"<.	c #FF5B00",
"[.	c #A3425C",
"}.	c #994C66",
"|.	c #FF1100",
"1.	c #0072FB",
"2.	c #000AF2",
"3.	c #006EFC",
"4.	c #0017F3",
"5.	c #007FFB",
"6.	c #FF0600",
"7.	c #FF5600",
"8.	c #A56A5A",
"9.	c #A53B5A",
"0.	c #FF4F00",
"a.	c #0076FB",
"b.	c #0076FA",
"c.	c #0093FF",
"d.	c #007DFC",
"e.	c #FF1C00",
"f.	c #A5765A",
"g.	c #A55D5A",
"h.	c #006FFB",
"i.	c #002CF5",
"j.	c #008AFD",
"k.	c #006BF9",
"l.	c #FF3A00",
"m.	c #FF5000",
"n.	c #007BFB",
"o.	c #008BFD",
"p.	c #A5755A",
"q.	c #9A5565",
"r.	c #A43A5B",
"s.	c #FF4D00",
"t.	c #80507F",
"u.	c #FF0F00",
"v.	c #7A5485",
"w.	c #A5555A",
"x.	c #FF0A00",
"y.	c #A53D5A",
"z.	c #A4515B",
"A.	c #A5685A",
"B.	c #A5735A",
"C.	c #FF0700",
"D.	c #FF2E00",
"E.	c #FF1500",
"F.	c #A3705C",
"G.	c #FF0500",
"H.	c #9A4965",
"I.	c #FF0E00",
"J.	c #FF3B00",
"K.	c #FF2D00",
"L.	c #A13C5E",
"M.	c #FF4C00",
"N.	c #62649D",
"O.	c #FF0B00",
"P.	c #FF4700",
"Q.	c #FF1D00",
"R.	c #A56D5A",
"S.	c #FF2C00",
"T.	c #A4465B",
"U.	c #FF1400",
"V.	c #A03E61",
"W.	c #FF3100",
"X.	c #FF1B00",
"Y.	c #FF1000",
"Z.	c #0029F5",
"`.	c #0027F4",
" +	c #4571BA",
".+	c #FF3900",
"++	c #FF3200",
"@+	c #008EFD",
"#+	c #0019F3",
"$+	c #0090FD",
"%+	c #FF0D00",
"&+	c #FF1E00",
"*+	c #FF4E00",
"=+	c #0088FC",
"-+	c #0087FC",
";+	c #FF1900",
">+	c #0036F6",
",+	c #FF2100",
"'+	c #0073FB",
")+	c #0062FA",
"!+	c #001AF3",
"~+	c #2463D8",
"{+	c #3E58BE",
"]+	c #2A7FD3",
"^+	c #807B7F",
"/+	c #008EFB",
"(+	c #006AFA",
"_+	c #004CF8",
":+	c #717B8D",
"<+	c #EE0B11",
"[+	c #F73E08",
"}+	c #FF1F00",
"|+	c #FF5500",
"                                                                                                ",
"                                                                                                ",
"    . . . . . . . . . . . . . . . . . .                 . . . . . . . . . . . . . . . .         ",
"    . + @ @ @ @ @ @ @ @ @ @ @ @ @ @ @ .                 . # @ @ @ @ @ @ @ @ @ @ @ @ $ .         ",
"    . % & & & * @ @ @ @ @ = & & & & & .                 . - & & & & & ; @ > & & & & , .         ",
"    . . . . . . * @ @ @ @ ; . . . . . .                 . . . . . . . ' @ ) . . . . . .         ",
"              ! ~ { @ @ @ @ ] ^                                   / ( @ $ .                     ",
"                ^ _ @ @ @ @ @ : !                               < [ > } ^ .                     ",
"                | 1 2 3 3 3 3 4 5 6                           7 8 9 3 0 a                       ",
"            b c d d d d d d d d d d d d d d d d d d d d d d d d d d d d d d d d c e             ",
"            f g g g g g g h i j k l m n o g g g g g g p q r s t u v g g g g g g g w             ",
"          x y g g g g z A B C D E F G H I c g g g g J K   L / M N O P Q h g g g g R S           ",
"          T g g g U V W X Y @ @ @ @ Z `  ...g g g g +.    ` ' @ @..     #.$.g g g g %.          ",
"          &.g g *.=.    -.;.@ @ @ @ @ >.,.'.g g g g '.  / ).@ !..         ~.{.U g g ].          ",
"        ^./.g (._.        ` :.@ @ @ @ <.[.'.g g g g '.}.|.<.} ^ .             1.2.g d e         ",
"        3.g 4.5.            6.7.@ @ @ @ 8.'.g g g g '.9.0.@ [ .                 a./.g b.        ",
"      c.R /.d.              -.e.@ @ @ @ f.'.g g g g '.g.@ - .                     h.h i.        ",
"      j.k.%.                  ^ l.@ @ @ f.'.g g g g '.f.m.`                         n.f o.      ",
"                                ! * @ @ f.'.g g g g '.p.G .                                     ",
"                                ! ~ { @ f.'.g g g g '.q..                                       ",
"                                  ^ _ @ f.'.g g g g '.r.                                        ",
"                                    ^ s.f.'.g g g g '.t.                                        ",
"                                    ^ u.p.'.g g g g '.v.                                        ",
"                                      ^ w.'.g g g g '.r.                                        ",
"                                      x.y.'.g g g g '.z.^                                       ",
"                                      ` A.'.g g g g '.B.x..                                     ",
"                                    C.D.f.'.g g g g '.f.# `                                     ",
"                                  < E.{ F.'.g g g g '.f.@ ( ^                                   ",
"                                : G.; @ H.'.g g g g '.f.@ <.I.^                                 ",
"                                -.J.@ K.L.'.g g g g '.f.@ @ s.`                                 ",
"                              I.) @ M.. N.'.g g g g '.f.@ @ @ _ ^                               ",
"                            L O.F <.6..   '.g g g g '.f.@ @ @ { E.!                             ",
"                            ^ P.@ Q..     '.g g g g '.R.@ @ @ @ * !                             ",
"                          G S.@ % .       '.g g g g '.T.{ @ @ @ @ l.^                           ",
"                        < U.> 7.^         ..g g g g u V.W.@ @ @ @ @ e.!                         ",
"                      X.-.m.@ Y..         Z.g g g g `. +` M.@ @ @ @ 7.6.                        ",
"                      -..+@ ++.         @+#+g g g g #+$+^ %+<.@ @ @ @ :.`                       ",
"                    I.&+@ *+.           =+h g g g g h -+  ! >.@ @ @ @ @ ;.^                     ",
"                  ;+x.} > C..           >+g g g g g g >+    ` Z @ @ @ @ Y / .                   ",
"                  ` ' @ ,+.   %.1.'+)+!+g g g g g g g g #+)+~+{+]+^+@ @ @ P.`                   ",
"                / ).@ !..   /+(+_+_+_+_+_+_+_+_+_+_+_+_+_+_+_+_+(+:+@ @ @ @ ).^                 ",
"              I.[ > F . .                                       <+[+@ @ @ @ <.I.`               ",
"    . . . . . . 0.@ }+. . . . . .                     . . . . . . . |+@ @ @ @ s.. . . . . .     ",
"    O.@ @ @ @ @ @ @ @ @ @ @ @ @ ^                     ! $ @ @ @ @ @ @ @ @ @ @ @ @ @ @ @ $ .     ",
"    . & & & & & & & & & & & & & .                     . , & & & & & & & & & & & & & & & , .     ",
"    . . . . . . . . . . . . . . .                     . . . . . . . . . . . . . . . . . . .     ",
"                                                                                                ",
"                                                                                                "};
