/* XPM */
static char * mini_xterm_16x16_xpm[] = {
"16 16 84 1",
" 	c None",
".	c #FF3200",
"+	c #FF3C00",
"@	c #FF3F00",
"#	c #FF3B00",
"$	c #FF3800",
"%	c #FF2000",
"&	c #FF1100",
"*	c #FF3D00",
"=	c #FF3900",
"-	c #FF2200",
";	c #FF0A00",
">	c #FF5D00",
",	c #FF1300",
"'	c #FF0500",
")	c #D0412F",
"!	c #DD6722",
"~	c #DA3E25",
"{	c #D84727",
"]	c #D03C2F",
"^	c #0023F3",
"/	c #000BF2",
"(	c #0E21E6",
"_	c #4433B4",
":	c #352EC3",
"<	c #0010F2",
"[	c #0004F1",
"}	c #2C33CB",
"|	c #3E2ABA",
"1	c #011EF3",
"2	c #0012F3",
"3	c #022DF5",
"4	c #F2140D",
"5	c #FF5E00",
"6	c #052AF0",
"7	c #0013F3",
"8	c #DD4822",
"9	c #002CF5",
"0	c #004FF7",
"a	c #003AF6",
"b	c #1529E1",
"c	c #D83827",
"d	c #0037F7",
"e	c #004CF8",
"f	c #FF5900",
"g	c #182EDE",
"h	c #FF2100",
"i	c #152CE1",
"j	c #DD3B22",
"k	c #FF2300",
"l	c #FF2A00",
"m	c #0C28E9",
"n	c #E1571E",
"o	c #FF2E00",
"p	c #012AF4",
"q	c #E1661E",
"r	c #FF3600",
"s	c #FF3500",
"t	c #0028F4",
"u	c #0011F2",
"v	c #D64E29",
"w	c #FF5C00",
"x	c #FF2B00",
"y	c #FF1D00",
"z	c #FF2F00",
"A	c #000EF2",
"B	c #0003F1",
"C	c #8C4072",
"D	c #FF4C00",
"E	c #FF2D00",
"F	c #0360F6",
"G	c #0031F6",
"H	c #0016F3",
"I	c #0827EE",
"J	c #3D47BE",
"K	c #E5631A",
"L	c #FF4300",
"M	c #FF3E00",
"N	c #FF2400",
"O	c #FF0700",
"P	c #FF3400",
"Q	c #FF5700",
"R	c #FF5600",
"S	c #FF3700",
" .+@#$% &$$*=-  ",
"  ;>#,    '+    ",
"   )!~    {]    ",
"  ^/(_:<[}|1/2  ",
"  2345=678  97  ",
" 0a  =>b7c   de ",
"      fg7       ",
"      hg7       ",
"      $i7j      ",
"     klm7no     ",
"     # p7qr     ",
"    sk tuvwx    ",
"   yz  ABCfDE   ",
"   = FGHHIJKr   ",
" $LM$N  O$PQRS- ",
"                "};
