/* XPM */
static char * mini_xterm_32x32_xpm[] = {
"32 32 143 2",
"  	c None",
". 	c #FF0000",
"+ 	c #FF1900",
"@ 	c #FF1F00",
"# 	c #FF0B00",
"$ 	c #FF1D00",
"% 	c #FF4A00",
"& 	c #FF5100",
"* 	c #FF5B00",
"= 	c #FF5E00",
"- 	c #FF5300",
"; 	c #FF3600",
"> 	c #FF0C00",
", 	c #FF5A00",
"' 	c #FF5C00",
") 	c #FF0A00",
"! 	c #FF0D00",
"~ 	c #FF2E00",
"{ 	c #FF5800",
"] 	c #FF2700",
"^ 	c #FF0500",
"/ 	c #0073FB",
"( 	c #0041F7",
"_ 	c #0074FB",
": 	c #0059F9",
"< 	c #0000F1",
"[ 	c #0505EC",
"} 	c #3A44BE",
"| 	c #615A9A",
"1 	c #784285",
"2 	c #3466C8",
"3 	c #004DF8",
"4 	c #0053F8",
"5 	c #006CF9",
"6 	c #3C44BD",
"7 	c #2729CF",
"8 	c #002CF5",
"9 	c #2D2EC9",
"0 	c #8D6E71",
"a 	c #E96416",
"b 	c #FF4400",
"c 	c #FF1800",
"d 	c #0019F3",
"e 	c #FF1400",
"f 	c #D66729",
"g 	c #73498A",
"h 	c #091FEB",
"i 	c #002CF4",
"j 	c #006FFC",
"k 	c #0002F1",
"l 	c #0059F8",
"m 	c #AD3252",
"n 	c #FF1700",
"o 	c #FF2B00",
"p 	c #B84A47",
"q 	c #0026F4",
"r 	c #FF0700",
"s 	c #FF1600",
"t 	c #003FF6",
"u 	c #0003F1",
"v 	c #006FFA",
"w 	c #0058F9",
"x 	c #0055FA",
"y 	c #FF3D00",
"z 	c #C3363C",
"A 	c #FF0400",
"B 	c #FF3F00",
"C 	c #FF1000",
"D 	c #003DF6",
"E 	c #005AF8",
"F 	c #002AF4",
"G 	c #FF0100",
"H 	c #FF5600",
"I 	c #C3643C",
"J 	c #A73958",
"K 	c #FF3100",
"L 	c #0020F3",
"M 	c #002DF5",
"N 	c #0089FD",
"O 	c #0022F4",
"P 	c #0085FD",
"Q 	c #C36E3C",
"R 	c #BC3943",
"S 	c #FF1300",
"T 	c #007AFC",
"U 	c #FF2200",
"V 	c #C3693C",
"W 	c #FF4600",
"X 	c #C3563C",
"Y 	c #FF1100",
"Z 	c #BD6C42",
"` 	c #C12F3E",
" .	c #B13B4E",
"..	c #C32F3C",
"+.	c #C0283F",
"@.	c #C34D3C",
"#.	c #FF2400",
"$.	c #BC3E43",
"%.	c #C36D3C",
"&.	c #FF3400",
"*.	c #FF0800",
"=.	c #C36B3C",
"-.	c #FF4E00",
";.	c #C3523C",
">.	c #FF3E00",
",.	c #FF1C00",
"'.	c #FF0200",
").	c #BF3240",
"!.	c #FF1A00",
"~.	c #B4624B",
"{.	c #FF5900",
"].	c #FF1200",
"^.	c #B82E47",
"/.	c #FF4800",
"(.	c #FF3A00",
"_.	c #001EF4",
":.	c #001DF4",
"<.	c #7D4882",
"[.	c #FF4F00",
"}.	c #0076FB",
"|.	c #000CF2",
"1.	c #0276F9",
"2.	c #FF3800",
"3.	c #FF5D00",
"4.	c #004CF7",
"5.	c #004CF8",
"6.	c #FB0104",
"7.	c #FF5500",
"8.	c #B53E4A",
"9.	c #0055F8",
"0.	c #0038F6",
"a.	c #0028F4",
"b.	c #0039F6",
"c.	c #0254F6",
"d.	c #C66E39",
"e.	c #FF3500",
"f.	c #248ADB",
"g.	c #785587",
"h.	c #DE3121",
"i.	c #FF1E00",
"j.	c #FF2800",
"k.	c #FF5700",
"l.	c #FF1B00",
"                                                                ",
"                                                                ",
"  . + @ @ @ @ @ @ @ @ @ # $             . @ @ @ @ @ @ @ @ .     ",
"  . % & & * = = = - & & ; @             > & & & , ' & & & )     ",
"  . . . . ! = = = ~ . . .               . . . . { ] ^ . . .     ",
"        / ( ( ( ( ( ( ( ( ( ( ( ( ( ( ( ( ( ( ( ( ( ( _         ",
"        : < < < [ } | 1 2 3 < < < < 4   5 6 7 < < < < :         ",
"        8 < < 9 0 a = b c   d < < d       e f g h < < i         ",
"      j k < l m n = = = o p q < < q     r { ] s   t < u v       ",
"      w < x     . y = = ' z q < < q   A % B C       D < E       ",
"      8 F         G H = = I q < < q J K & !           L M       ",
"    N O P           r = = Q q < < q R ' S             T O N     ",
"                    . U = Q q < < q V ] s                       ",
"                      . W Q q < < q X Y                         ",
"                        G Z q < < q `                           ",
"                           .q < < q ..                          ",
"                          +.q < < q @.#.                        ",
"                          $.q < < q %.+ &.                      ",
"                        *.=.q < < q Q - Y                       ",
"                      A -.;.q < < q Q = >.,.                    ",
"                    '.; -.).q < < q Q = = U ~                   ",
"                    !., Y   q < < q ~.= = {.].                  ",
"                  *., U     q < < q ^., = = /.s                 ",
"                A -.(.].    _.< < :.<.C = = = ~ ]               ",
"              '.; [.!     }.|.< < |.1.. 2.= = 3.s               ",
"              !., Y       4.< < < < 5.  6.7.= = & ].            ",
"            *., U 8.9.0.a.< < < < < < a.b.c.d.= = (.@           ",
"          A -.e.#   f.                    g.h.= = = i.j.        ",
"  . @ @ ,.y , Y ,.@ @ G               '.@ ,.].* = = k.l.@ @ .   ",
"  . & & & & & & & & & )               ,.& & & & & & & & & & )   ",
"  . . . . . . . . . . .               . . . . . . . . . . . .   ",
"                                                                "};
