/* XPM */
static char * xterm_color_32x32_xpm[] = {
"32 32 60 1",
".	c None",
" 	c #FFFFFF",
"+	c #000000",
"@	c #EFEFEF",
"#	c #FEFEFE",
"$	c #FBFBFB",
"%	c #F3F3F3",
"&	c #ADADAD",
"*	c #909090",
"=	c #737373",
"-	c #D2D2D2",
";	c #646464",
">	c #9A9A9A",
",	c #8D8D8D",
"'	c #D3D3D3",
")	c #0E0E0E",
"!	c #F6F6F6",
"~	c #5E5E5E",
"{	c #B1B1B1",
"]	c #777777",
"^	c #949494",
"/	c #757575",
"(	c #C4C4C4",
"_	c #E7E7E7",
":	c #F1F1F1",
"<	c #F8F8F8",
"[	c #EEEEEE",
"}	c #F0F0F0",
"|	c #FAFAFA",
"1	c #7B7B7B",
"2	c #3D3D3D",
"3	c #868686",
"4	c #4F4F4F",
"5	c #ABABAB",
"6	c #545454",
"7	c #5B5B5B",
"8	c #AFAFAF",
"9	c #292929",
"0	c #181818",
"a	c #C7C7C7",
"b	c #CFCFCF",
"c	c #7F7F7F",
"d	c #A3A3A3",
"e	c #4D4D4D",
"f	c #6A6A6A",
"g	c #A1A1A1",
"h	c #8E8E8E",
"i	c #696969",
"j	c #474747",
"k	c #5A5A5A",
"l	c #959595",
"m	c #767676",
"n	c #8B8B8B",
"o	c #BCBCBC",
"p	c #BFBFBF",
"q	c #D7D7D7",
"r	c #404040",
"s	c #636363",
"t	c #989898",
"u	c #8A8A8A",
"................................",
".....+++++++++++++++++++++++....",
"....+..+++++++++++++++++++..++..",
"....+.+...................+.+.+.",
"....++.@#.$%................+..+",
"....++.&*.=-................+..+",
"....++..;>,.................+..+",
"....++..')!.................+..+",
"....++.#~{].................+..+",
"....++.^{./(................+..+",
"....++......................+..+",
"....++......................+..+",
"....++.____:___<_[..<}..[|..+..+",
"....++.1;21341156]7.89$:0a..+..+",
"....++..bc.8^__8d.e.8fghia..+..+",
"....++..bc.84115jkl.887mna..+..+",
"....++..bc.8d..8dof.88pqna..+..+",
"....++..bc.8rss5d.tu88..na..+...",
"....++......................+.+.",
"....++......................+.+.",
"....+.+...................+.++..",
"....+..+++++++++++++++++++..+...",
".....+++++++++++++++++++++++....",
"................................",
".....++++++++++++++++++++++++...",
"....+.......................+...",
"...+.......................+....",
"...+..++..++.++..++..+..++.+....",
"....++..++..+..++..++.++........",
"..+.......................+.+...",
".+.......................+......",
".++++++++++++++++++++++++++....."};
