/* XPM */
static char * xterm_color_48x48_xpm[] = {
"48 48 10 1",
".	c None",
" 	c #555500",
"+	c #000000",
"@	c #FFFFFF",
"#	c #FF0000",
"$	c #070700",
"%	c #0B0B00",
"&	c #FF8400",
"*	c #49FF00",
"=	c #60B7FF",
"................................................",
"......++++++++++++++++++++++++++++++++++........",
".....+@@@@@@@@@@@@@@@@@@@@@@@@@@@@@@@@@@++......",
".....+@@@++++++++++++++++++++++++++++@@@+@+.....",
".....+@@++++++++++++++++++++++++++++++@@+@@+....",
".....+@++++++++++++++++++++++++++++++++@+@@@+...",
".....+@++###++++###++++++++++++++++++++@+@@@@+..",
".....+@+++##++++##+++++++++++++++++++++@+@@@@+..",
".....+@++++##++##++++++++++++++++++++++@+@@@@+..",
".....+@++++##++##++++++++++++++++++++++@+@@@@+..",
".....+@+++++####+++++++++++++++++++++++@+@@@@+..",
".....+@+++++####+++++++++++++++++++++++@+@@@@+..",
".....+@++++++##++++++++++++++++++++++++@+@@@@+..",
".....+@+++++####+++++++++++++++++++++++@+@@@@+..",
".....+@+++++####+++++++++++++++++++++++@+@@@@+..",
".....+@++++##++##++++++++++++++++++++++@+@@@@+..",
".....+@++++##++##++++++++++++++++++++++@+@@@@+..",
".....+@+++##++++##+++++++++++++++++++++@+@@@@+..",
".....+@++###++++###++++++++++++++++++++@+@@@@+..",
".....+@++++++++++++++++++++++++++++++++@+@@@@+..",
".....+@$+++++++++++++++++++++++++++++++@+@@@@+..",
".....+@%@@@@@@@+&&&&&++****+++==+++==++@+@@@@+..",
".....+@++++@++++&++++++*+++*++==+++==++@+@@@@+..",
".....+@++++@++++&++++++*+++*++=+=+=+=++@+@@@@+..",
".....+@++++@++++&&&&+++****+++=+=+=+=++@+@@@@+..",
".....+@++++@++++&++++++*+*++++=++=++=++@+@@@+...",
".....+@++++@++++&++++++*++*+++=++=++=++@+@@@+...",
".....+@++++@++++&&&&&++*+++*++=+++++=++@+@@+....",
".....+@++++++++++++++++++++++++++++++++@+@@+....",
".....+@++++++++++++++++++++++++++++++++@+@+.....",
".....+@@++++++++++++++++++++++++++++++@@+@+.....",
".....+@@@++++++++++++++++++++++++++++@@@++......",
".....+@@@@@@@@@@@@@@@@@@@@@@@@@@@@@@@@@@++......",
"......++++++++++++++++++++++++++++++++++........",
"................................................",
"................................................",
"......++++++++++++++++++++++++++++++++++++......",
".....+@@@@@@@@@@@@@@@@@@@@@@@@@@@@@@@@@@++......",
".....+@+@+@+@+@+@+@+@+@+@+@+@+@+@+@+@+@@++......",
"....+@@@@@@@@@@@@@@@@@@@@@@@@@@@@@@@@@@+@+......",
"....+@+@+@+@+@+@+@+@+@+@+@+@+@+@+@+@+@@+@+......",
"...+@@@@@@@@@@@@@@@@@@@@@@@@@@@@@@@@@@+@@+......",
"...+@+@+@+@+@+@+@+@+@+@+@+@+@+@+@+@+@@+@@+......",
"..+@@@@@@@@@@@@@@@@@@@@@@@@@@@@@@@@@@+@@+.......",
"..+@++@++++++++++++++++++++++++++@++@+@+........",
".+@@@@@@@@@@@@@@@@@@@@@@@@@@@@@@@@@@+@+.........",
".+++++++++++++++++++++++++++++++++++++..........",
"................................................"};
