<?xml version="1.0" encoding="UTF-8" standalone="no"?>
<!-- Created with Inkscape (http://www.inkscape.org/) -->

<svg
   xmlns:dc="http://purl.org/dc/elements/1.1/"
   xmlns:cc="http://creativecommons.org/ns#"
   xmlns:rdf="http://www.w3.org/1999/02/22-rdf-syntax-ns#"
   xmlns:svg="http://www.w3.org/2000/svg"
   xmlns="http://www.w3.org/2000/svg"
   xmlns:sodipodi="http://sodipodi.sourceforge.net/DTD/sodipodi-0.dtd"
   xmlns:inkscape="http://www.inkscape.org/namespaces/inkscape"
   width="48px"
   height="48px"
   id="svg2985"
   version="1.1"
   inkscape:version="0.47 r22583"
   sodipodi:docname="xterm-color.svg"
   sodipodi:version="0.32"
   inkscape:output_extension="org.inkscape.output.svg.inkscape"
   enable-background="new">
  <title
     id="title2983">terminal</title>
  <defs
     id="defs2987">
    <inkscape:perspective
       sodipodi:type="inkscape:persp3d"
       inkscape:vp_x="0 : 24 : 1"
       inkscape:vp_y="0 : 1000 : 0"
       inkscape:vp_z="48 : 24 : 1"
       inkscape:persp3d-origin="24 : 16 : 1"
       id="perspective11" />
  </defs>
  <sodipodi:namedview
     id="base"
     pagecolor="#ffffff"
     bordercolor="#666666"
     borderopacity="1.0"
     inkscape:pageopacity="0.0"
     inkscape:pageshadow="2"
     inkscape:zoom="11.313708"
     inkscape:cx="23.637681"
     inkscape:cy="25.479115"
     inkscape:current-layer="layer3"
     showgrid="true"
     inkscape:grid-bbox="true"
     inkscape:document-units="px"
     inkscape:window-width="1258"
     inkscape:window-height="786"
     inkscape:window-x="3"
     inkscape:window-y="44"
     inkscape:window-maximized="0"
     objecttolerance="2">
    <inkscape:grid
       type="xygrid"
       id="grid2988"
       empspacing="5"
       visible="true"
       enabled="false"
       snapvisiblegridlinesonly="true" />
  </sodipodi:namedview>
  <metadata
     id="metadata2990">
    <rdf:RDF>
      <cc:Work
         rdf:about="">
        <dc:format>image/svg+xml</dc:format>
        <dc:type
           rdf:resource="http://purl.org/dc/dcmitype/StillImage" />
        <dc:title>xterm</dc:title>
        <cc:license
           rdf:resource="http://creativecommons.org/licenses/by/3.0/" />
        <dc:creator>
          <cc:Agent>
            <dc:title>Thomas E. Dickey</dc:title>
          </cc:Agent>
        </dc:creator>
        <dc:rights>
          <cc:Agent>
            <dc:title>MIT-X11</dc:title>
          </cc:Agent>
        </dc:rights>
        <dc:description>XTerm icon, in SVG format.</dc:description>
        <dc:date>June 14, 2012</dc:date>
        <dc:source>http://invisible-island.net/xterm/</dc:source>
        <dc:identifier>http://invisible-island.net/xterm/xterm</dc:identifier>
      </cc:Work>
      <cc:License
         rdf:about="http://creativecommons.org/licenses/by/3.0/">
        <cc:permits
           rdf:resource="http://creativecommons.org/ns#Reproduction" />
        <cc:permits
           rdf:resource="http://creativecommons.org/ns#Distribution" />
        <cc:requires
           rdf:resource="http://creativecommons.org/ns#Notice" />
        <cc:requires
           rdf:resource="http://creativecommons.org/ns#Attribution" />
        <cc:permits
           rdf:resource="http://creativecommons.org/ns#DerivativeWorks" />
      </cc:License>
    </rdf:RDF>
  </metadata>
  <g
     inkscape:groupmode="layer"
     id="layer3"
     inkscape:label="background"
     style="display:inline;opacity:0"
     sodipodi:insensitive="true">
    <rect
       style="fill:#555500;fill-opacity:1"
       id="rect3381"
       width="47.982246"
       height="48.303047"
       x="0.10101525"
       y="0" />
  </g>
  <g
     inkscape:groupmode="layer"
     id="layer2"
     inkscape:label="Image"
     style="display:inline;opacity:1"
     sodipodi:insensitive="true">
    <path
       style="fill:none;stroke:#000000;stroke-width:1px;stroke-linecap:butt;stroke-linejoin:miter;stroke-opacity:1"
       d="m 6.3639611,36.585276 35.1533089,-0.101015 0,5.9599 -4.04061,4.04061 -36.0624464,0 0,-1.010152 4.9497475,-8.889343 z"
       id="path2386"
       inkscape:connector-curvature="0" />
    <path
       style="fill:none;stroke:#000000;stroke-width:1px;stroke-linecap:butt;stroke-linejoin:miter;stroke-opacity:1"
       d="m 36.5,46.5 0,-1 4.5,-9"
       id="path2388"
       inkscape:connector-curvature="0" />
    <path
       style="fill:none;stroke:#000000;stroke-width:1px;stroke-linecap:butt;stroke-linejoin:miter;stroke-opacity:1"
       d="m 4.5,44.5 1,0"
       id="path2398"
       inkscape:connector-curvature="0" />
    <path
       style="fill:none;stroke:#000000;stroke-width:1px;stroke-linecap:butt;stroke-linejoin:miter;stroke-opacity:1"
       d="m 7.5,44.5 25,0"
       id="path2400"
       inkscape:connector-curvature="0" />
    <path
       style="fill:none;stroke:#000000;stroke-width:1px;stroke-linecap:butt;stroke-linejoin:miter;stroke-opacity:1"
       d="m 34.5,44.5 1,0"
       id="path2402"
       inkscape:connector-curvature="0" />
    <path
       style="fill:none;stroke:#000000;stroke-width:1px;stroke-linecap:butt;stroke-linejoin:miter;stroke-opacity:1"
       d="m 7.5,5.5 0,24 2,2 27,0 2,-2 0,-24 -2,-2 -27,0 -2,2 z"
       id="path2406"
       inkscape:connector-curvature="0" />
    <path
       style="fill:none;stroke:#000000;stroke-width:1px;stroke-linecap:butt;stroke-linejoin:miter;stroke-opacity:1"
       d="m 5.5,32.5 1,1 33,0 1,-1 0,-30 -1,-1 -33,0 -1,1 0,30 z"
       id="path2408"
       inkscape:connector-curvature="0" />
    <path
       style="fill:none;stroke:#000000;stroke-width:1px;stroke-linecap:butt;stroke-linejoin:miter;stroke-opacity:1"
       d="m 40.5,32.5 1,0 4,-8 0,-18 -4,-4 -1,0 0,30 z"
       id="path2410"
       inkscape:connector-curvature="0" />
    <path
       style="fill:none;stroke:#000000;stroke-width:1px;stroke-linecap:butt;stroke-linejoin:miter;stroke-opacity:1"
       d="m 7.5,38.5 0,0 z"
       id="path2395"
       inkscape:connector-curvature="0" />
    <path
       sodipodi:type="arc"
       id="path2413"
       style="fill:#000000;stroke:none"
       sodipodi:cx="7.5"
       sodipodi:cy="38.5"
       sodipodi:rx="0.5"
       sodipodi:ry="0.5"
       d="m 8,38.5 a 0.5,0.5 0 1 1 -1,0 0.5,0.5 0 1 1 1,0 z" />
    <path
       sodipodi:type="arc"
       id="path2415"
       style="fill:#000000;stroke:none"
       sodipodi:cx="9.5"
       sodipodi:cy="38.5"
       sodipodi:rx="0.5"
       sodipodi:ry="0.5"
       d="m 10,38.5 a 0.5,0.5 0 1 1 -1,0 0.5,0.5 0 1 1 1,0 z" />
    <path
       sodipodi:type="arc"
       id="path2419"
       style="fill:#000000;stroke:none"
       sodipodi:cx="11.5"
       sodipodi:cy="38.5"
       sodipodi:rx="0.5"
       sodipodi:ry="0.5"
       d="m 12,38.5 a 0.5,0.5 0 1 1 -1,0 0.5,0.5 0 1 1 1,0 z" />
    <path
       sodipodi:type="arc"
       id="path2421"
       style="fill:#000000;stroke:none"
       sodipodi:cx="13.5"
       sodipodi:cy="38.5"
       sodipodi:rx="0.5"
       sodipodi:ry="0.5"
       d="m 14,38.5 a 0.5,0.5 0 1 1 -1,0 0.5,0.5 0 1 1 1,0 z" />
    <path
       sodipodi:type="arc"
       id="path2423"
       style="fill:#000000;stroke:none"
       sodipodi:cx="15.5"
       sodipodi:cy="38.5"
       sodipodi:rx="0.5"
       sodipodi:ry="0.5"
       d="m 16,38.5 a 0.5,0.5 0 1 1 -1,0 0.5,0.5 0 1 1 1,0 z" />
    <path
       sodipodi:type="arc"
       id="path2425"
       style="fill:#000000;stroke:none"
       sodipodi:cx="17.5"
       sodipodi:cy="38.5"
       sodipodi:rx="0.5"
       sodipodi:ry="0.5"
       d="m 18,38.5 a 0.5,0.5 0 1 1 -1,0 0.5,0.5 0 1 1 1,0 z" />
    <path
       sodipodi:type="arc"
       id="path2427"
       style="fill:#000000;stroke:none"
       sodipodi:cx="19.5"
       sodipodi:cy="38.5"
       sodipodi:rx="0.5"
       sodipodi:ry="0.5"
       d="m 20,38.5 a 0.5,0.5 0 1 1 -1,0 0.5,0.5 0 1 1 1,0 z" />
    <path
       sodipodi:type="arc"
       id="path2429"
       style="fill:#000000;stroke:none"
       sodipodi:cx="21.5"
       sodipodi:cy="38.5"
       sodipodi:rx="0.5"
       sodipodi:ry="0.5"
       d="m 22,38.5 a 0.5,0.5 0 1 1 -1,0 0.5,0.5 0 1 1 1,0 z" />
    <path
       sodipodi:type="arc"
       id="path2431"
       style="fill:#000000;stroke:none"
       sodipodi:cx="23.5"
       sodipodi:cy="38.5"
       sodipodi:rx="0.5"
       sodipodi:ry="0.5"
       d="m 24,38.5 a 0.5,0.5 0 1 1 -1,0 0.5,0.5 0 1 1 1,0 z" />
    <path
       sodipodi:type="arc"
       id="path2433"
       style="fill:#000000;stroke:none"
       sodipodi:cx="25.5"
       sodipodi:cy="38.5"
       sodipodi:rx="0.5"
       sodipodi:ry="0.5"
       d="m 26,38.5 a 0.5,0.5 0 1 1 -1,0 0.5,0.5 0 1 1 1,0 z" />
    <path
       sodipodi:type="arc"
       id="path2435"
       style="fill:#000000;stroke:none"
       sodipodi:cx="27.5"
       sodipodi:cy="38.5"
       sodipodi:rx="0.5"
       sodipodi:ry="0.5"
       d="m 28,38.5 a 0.5,0.5 0 1 1 -1,0 0.5,0.5 0 1 1 1,0 z" />
    <path
       sodipodi:type="arc"
       id="path2437"
       style="fill:#000000;stroke:none"
       sodipodi:cx="29.5"
       sodipodi:cy="38.5"
       sodipodi:rx="0.5"
       sodipodi:ry="0.5"
       d="m 30,38.5 a 0.5,0.5 0 1 1 -1,0 0.5,0.5 0 1 1 1,0 z" />
    <path
       sodipodi:type="arc"
       id="path2439"
       style="fill:#000000;stroke:none"
       sodipodi:cx="31.5"
       sodipodi:cy="38.5"
       sodipodi:rx="0.5"
       sodipodi:ry="0.5"
       d="m 32,38.5 a 0.5,0.5 0 1 1 -1,0 0.5,0.5 0 1 1 1,0 z" />
    <path
       sodipodi:type="arc"
       id="path2441"
       style="fill:#000000;stroke:none"
       sodipodi:cx="33.5"
       sodipodi:cy="38.5"
       sodipodi:rx="0.5"
       sodipodi:ry="0.5"
       d="m 34,38.5 a 0.5,0.5 0 1 1 -1,0 0.5,0.5 0 1 1 1,0 z" />
    <path
       sodipodi:type="arc"
       id="path2443"
       style="fill:#000000;stroke:none"
       sodipodi:cx="35.5"
       sodipodi:cy="38.5"
       sodipodi:rx="0.5"
       sodipodi:ry="0.5"
       d="m 36,38.5 a 0.5,0.5 0 1 1 -1,0 0.5,0.5 0 1 1 1,0 z" />
    <path
       sodipodi:type="arc"
       id="path2445"
       style="fill:#000000;stroke:none"
       sodipodi:cx="37.5"
       sodipodi:cy="38.5"
       sodipodi:rx="0.5"
       sodipodi:ry="0.5"
       d="m 38,38.5 a 0.5,0.5 0 1 1 -1,0 0.5,0.5 0 1 1 1,0 z" />
    <path
       sodipodi:type="arc"
       id="path2447"
       style="fill:#000000;stroke:none"
       sodipodi:cx="6.5"
       sodipodi:cy="40.5"
       sodipodi:rx="0.5"
       sodipodi:ry="0.5"
       d="m 7,40.5 a 0.5,0.5 0 1 1 -1,0 0.5,0.5 0 1 1 1,0 z" />
    <path
       sodipodi:type="arc"
       id="path2449"
       style="fill:#000000;stroke:none"
       sodipodi:cx="8.5"
       sodipodi:cy="40.5"
       sodipodi:rx="0.5"
       sodipodi:ry="0.5"
       d="m 9,40.5 a 0.5,0.5 0 1 1 -1,0 0.5,0.5 0 1 1 1,0 z" />
    <path
       sodipodi:type="arc"
       id="path2451"
       style="fill:#000000;stroke:none"
       sodipodi:cx="10.5"
       sodipodi:cy="40.5"
       sodipodi:rx="0.5"
       sodipodi:ry="0.5"
       d="m 11,40.5 a 0.5,0.5 0 1 1 -1,0 0.5,0.5 0 1 1 1,0 z" />
    <path
       sodipodi:type="arc"
       id="path2453"
       style="fill:#000000;stroke:none"
       sodipodi:cx="12.5"
       sodipodi:cy="40.5"
       sodipodi:rx="0.5"
       sodipodi:ry="0.5"
       d="m 13,40.5 a 0.5,0.5 0 1 1 -1,0 0.5,0.5 0 1 1 1,0 z" />
    <path
       sodipodi:type="arc"
       id="path2455"
       style="fill:#000000;stroke:none"
       sodipodi:cx="14.5"
       sodipodi:cy="40.5"
       sodipodi:rx="0.5"
       sodipodi:ry="0.5"
       d="m 15,40.5 a 0.5,0.5 0 1 1 -1,0 0.5,0.5 0 1 1 1,0 z" />
    <path
       sodipodi:type="arc"
       id="path2457"
       style="fill:#000000;stroke:none"
       sodipodi:cx="16.5"
       sodipodi:cy="40.5"
       sodipodi:rx="0.5"
       sodipodi:ry="0.5"
       d="m 17,40.5 a 0.5,0.5 0 1 1 -1,0 0.5,0.5 0 1 1 1,0 z" />
    <path
       sodipodi:type="arc"
       id="path2461"
       style="fill:#000000;stroke:none"
       sodipodi:cx="18.5"
       sodipodi:cy="40.5"
       sodipodi:rx="0.5"
       sodipodi:ry="0.5"
       d="m 19,40.5 a 0.5,0.5 0 1 1 -1,0 0.5,0.5 0 1 1 1,0 z" />
    <path
       sodipodi:type="arc"
       id="path2463"
       style="fill:#000000;stroke:none"
       sodipodi:cx="20.5"
       sodipodi:cy="40.5"
       sodipodi:rx="0.5"
       sodipodi:ry="0.5"
       d="m 21,40.5 a 0.5,0.5 0 1 1 -1,0 0.5,0.5 0 1 1 1,0 z" />
    <path
       sodipodi:type="arc"
       id="path2465"
       style="fill:#000000;stroke:none"
       sodipodi:cx="22.5"
       sodipodi:cy="40.5"
       sodipodi:rx="0.5"
       sodipodi:ry="0.5"
       d="m 23,40.5 a 0.5,0.5 0 1 1 -1,0 0.5,0.5 0 1 1 1,0 z" />
    <path
       sodipodi:type="arc"
       id="path2467"
       style="fill:#000000;stroke:none"
       sodipodi:cx="24.5"
       sodipodi:cy="40.5"
       sodipodi:rx="0.5"
       sodipodi:ry="0.5"
       d="m 25,40.5 a 0.5,0.5 0 1 1 -1,0 0.5,0.5 0 1 1 1,0 z" />
    <path
       sodipodi:type="arc"
       id="path2469"
       style="fill:#000000;stroke:none"
       sodipodi:cx="26.5"
       sodipodi:cy="40.5"
       sodipodi:rx="0.5"
       sodipodi:ry="0.5"
       d="m 27,40.5 a 0.5,0.5 0 1 1 -1,0 0.5,0.5 0 1 1 1,0 z" />
    <path
       sodipodi:type="arc"
       id="path2471"
       style="fill:#000000;stroke:none"
       sodipodi:cx="28.5"
       sodipodi:cy="40.5"
       sodipodi:rx="0.5"
       sodipodi:ry="0.5"
       d="m 29,40.5 a 0.5,0.5 0 1 1 -1,0 0.5,0.5 0 1 1 1,0 z" />
    <path
       sodipodi:type="arc"
       id="path2473"
       style="fill:#000000;stroke:none"
       sodipodi:cx="30.5"
       sodipodi:cy="40.5"
       sodipodi:rx="0.5"
       sodipodi:ry="0.5"
       d="m 31,40.5 a 0.5,0.5 0 1 1 -1,0 0.5,0.5 0 1 1 1,0 z" />
    <path
       sodipodi:type="arc"
       id="path2475"
       style="fill:#000000;stroke:none"
       sodipodi:cx="32.5"
       sodipodi:cy="40.5"
       sodipodi:rx="0.5"
       sodipodi:ry="0.5"
       d="m 33,40.5 a 0.5,0.5 0 1 1 -1,0 0.5,0.5 0 1 1 1,0 z" />
    <path
       sodipodi:type="arc"
       id="path2477"
       style="fill:#000000;stroke:none"
       sodipodi:cx="34.5"
       sodipodi:cy="40.5"
       sodipodi:rx="0.5"
       sodipodi:ry="0.5"
       d="m 35,40.5 a 0.5,0.5 0 1 1 -1,0 0.5,0.5 0 1 1 1,0 z" />
    <path
       sodipodi:type="arc"
       id="path2479"
       style="fill:#000000;stroke:none"
       sodipodi:cx="36.5"
       sodipodi:cy="40.5"
       sodipodi:rx="0.5"
       sodipodi:ry="0.5"
       d="m 37,40.5 a 0.5,0.5 0 1 1 -1,0 0.5,0.5 0 1 1 1,0 z" />
    <path
       sodipodi:type="arc"
       id="path2481"
       style="fill:#000000;stroke:none"
       sodipodi:cx="5.5"
       sodipodi:cy="42.5"
       sodipodi:rx="0.5"
       sodipodi:ry="0.5"
       d="m 6,42.5 a 0.5,0.5 0 1 1 -1,0 0.5,0.5 0 1 1 1,0 z" />
    <path
       sodipodi:type="arc"
       id="path2483"
       style="fill:#000000;stroke:none"
       sodipodi:cx="7.5"
       sodipodi:cy="42.5"
       sodipodi:rx="0.5"
       sodipodi:ry="0.5"
       d="m 8,42.5 a 0.5,0.5 0 1 1 -1,0 0.5,0.5 0 1 1 1,0 z" />
    <path
       sodipodi:type="arc"
       id="path2485"
       style="fill:#000000;stroke:none"
       sodipodi:cx="9.5"
       sodipodi:cy="42.5"
       sodipodi:rx="0.5"
       sodipodi:ry="0.5"
       d="m 10,42.5 a 0.5,0.5 0 1 1 -1,0 0.5,0.5 0 1 1 1,0 z" />
    <path
       sodipodi:type="arc"
       id="path2487"
       style="fill:#000000;stroke:none"
       sodipodi:cx="11.5"
       sodipodi:cy="42.5"
       sodipodi:rx="0.5"
       sodipodi:ry="0.5"
       d="m 12,42.5 a 0.5,0.5 0 1 1 -1,0 0.5,0.5 0 1 1 1,0 z" />
    <path
       sodipodi:type="arc"
       id="path2489"
       style="fill:#000000;stroke:none"
       sodipodi:cx="13.5"
       sodipodi:cy="42.5"
       sodipodi:rx="0.5"
       sodipodi:ry="0.5"
       d="m 14,42.5 a 0.5,0.5 0 1 1 -1,0 0.5,0.5 0 1 1 1,0 z" />
    <path
       sodipodi:type="arc"
       id="path2491"
       style="fill:#000000;stroke:none"
       sodipodi:cx="15.5"
       sodipodi:cy="42.5"
       sodipodi:rx="0.5"
       sodipodi:ry="0.5"
       d="m 16,42.5 a 0.5,0.5 0 1 1 -1,0 0.5,0.5 0 1 1 1,0 z" />
    <path
       sodipodi:type="arc"
       id="path2493"
       style="fill:#000000;stroke:none"
       sodipodi:cx="17.5"
       sodipodi:cy="42.5"
       sodipodi:rx="0.5"
       sodipodi:ry="0.5"
       d="m 18,42.5 a 0.5,0.5 0 1 1 -1,0 0.5,0.5 0 1 1 1,0 z" />
    <path
       sodipodi:type="arc"
       id="path2495"
       style="fill:#000000;stroke:none"
       sodipodi:cx="19.5"
       sodipodi:cy="42.5"
       sodipodi:rx="0.5"
       sodipodi:ry="0.5"
       d="m 20,42.5 a 0.5,0.5 0 1 1 -1,0 0.5,0.5 0 1 1 1,0 z" />
    <path
       sodipodi:type="arc"
       id="path2497"
       style="fill:#000000;stroke:none"
       sodipodi:cx="21.5"
       sodipodi:cy="42.5"
       sodipodi:rx="0.5"
       sodipodi:ry="0.5"
       d="m 22,42.5 a 0.5,0.5 0 1 1 -1,0 0.5,0.5 0 1 1 1,0 z" />
    <path
       sodipodi:type="arc"
       id="path2499"
       style="fill:#000000;stroke:none"
       sodipodi:cx="23.5"
       sodipodi:cy="42.5"
       sodipodi:rx="0.5"
       sodipodi:ry="0.5"
       d="m 24,42.5 a 0.5,0.5 0 1 1 -1,0 0.5,0.5 0 1 1 1,0 z" />
    <path
       sodipodi:type="arc"
       id="path2501"
       style="fill:#000000;stroke:none"
       sodipodi:cx="25.5"
       sodipodi:cy="42.5"
       sodipodi:rx="0.5"
       sodipodi:ry="0.5"
       d="m 26,42.5 a 0.5,0.5 0 1 1 -1,0 0.5,0.5 0 1 1 1,0 z" />
    <path
       sodipodi:type="arc"
       id="path2503"
       style="fill:#000000;stroke:none"
       sodipodi:cx="27.5"
       sodipodi:cy="42.5"
       sodipodi:rx="0.5"
       sodipodi:ry="0.5"
       d="m 28,42.5 a 0.5,0.5 0 1 1 -1,0 0.5,0.5 0 1 1 1,0 z" />
    <path
       sodipodi:type="arc"
       id="path2505"
       style="fill:#000000;stroke:none"
       sodipodi:cx="29.5"
       sodipodi:cy="42.5"
       sodipodi:rx="0.5"
       sodipodi:ry="0.5"
       d="m 30,42.5 a 0.5,0.5 0 1 1 -1,0 0.5,0.5 0 1 1 1,0 z" />
    <path
       sodipodi:type="arc"
       id="path2507"
       style="fill:#000000;stroke:none"
       sodipodi:cx="31.5"
       sodipodi:cy="42.5"
       sodipodi:rx="0.5"
       sodipodi:ry="0.5"
       d="m 32,42.5 a 0.5,0.5 0 1 1 -1,0 0.5,0.5 0 1 1 1,0 z" />
    <path
       sodipodi:type="arc"
       id="path2509"
       style="fill:#000000;stroke:none"
       sodipodi:cx="33.5"
       sodipodi:cy="42.5"
       sodipodi:rx="0.5"
       sodipodi:ry="0.5"
       d="m 34,42.5 a 0.5,0.5 0 1 1 -1,0 0.5,0.5 0 1 1 1,0 z" />
    <path
       sodipodi:type="arc"
       id="path2511"
       style="fill:#000000;stroke:none"
       sodipodi:cx="35.5"
       sodipodi:cy="42.5"
       sodipodi:rx="0.5"
       sodipodi:ry="0.5"
       d="m 36,42.5 a 0.5,0.5 0 1 1 -1,0 0.5,0.5 0 1 1 1,0 z" />
    <path
       sodipodi:type="arc"
       id="path2513"
       style="fill:#000000;stroke:none"
       sodipodi:cx="4.5"
       sodipodi:cy="44.5"
       sodipodi:rx="0.5"
       sodipodi:ry="0.5"
       d="m 5,44.5 a 0.5,0.5 0 1 1 -1,0 0.5,0.5 0 1 1 1,0 z" />
    <path
       sodipodi:type="arc"
       id="path2517"
       style="fill:#000000;stroke:none"
       sodipodi:cx="5.5"
       sodipodi:cy="44.5"
       sodipodi:rx="0.5"
       sodipodi:ry="0.5"
       d="m 6,44.5 a 0.5,0.5 0 1 1 -1,0 0.5,0.5 0 1 1 1,0 z" />
    <path
       sodipodi:type="arc"
       id="path2519"
       style="fill:#000000;stroke:none"
       sodipodi:cx="34.5"
       sodipodi:cy="44.5"
       sodipodi:rx="0.5"
       sodipodi:ry="0.5"
       d="m 35,44.5 a 0.5,0.5 0 1 1 -1,0 0.5,0.5 0 1 1 1,0 z" />
    <path
       sodipodi:type="arc"
       id="path2521"
       style="fill:#000000;stroke:none"
       sodipodi:cx="35.5"
       sodipodi:cy="44.5"
       sodipodi:rx="0.5"
       sodipodi:ry="0.5"
       d="m 36,44.5 a 0.5,0.5 0 1 1 -1,0 0.5,0.5 0 1 1 1,0 z" />
    <path
       sodipodi:type="arc"
       id="path2523"
       style="fill:#000000;stroke:none"
       sodipodi:cx="7.5"
       sodipodi:cy="44.5"
       sodipodi:rx="0.5"
       sodipodi:ry="0.5"
       d="m 8,44.5 a 0.5,0.5 0 1 1 -1,0 0.5,0.5 0 1 1 1,0 z" />
    <path
       sodipodi:type="arc"
       id="path2529"
       style="fill:#000000;stroke:none"
       sodipodi:cx="32.5"
       sodipodi:cy="44.5"
       sodipodi:rx="0.5"
       sodipodi:ry="0.5"
       d="m 33,44.5 a 0.5,0.5 0 1 1 -1,0 0.5,0.5 0 1 1 1,0 z" />
    <path
       style="fill:#ffffff;fill-opacity:1"
       d="m 6.3400078,32.572667 -0.3228619,-0.333108 0,-14.748856 0,-14.7488567 0.3331089,-0.322861 0.3331079,-0.3228619 16.3145933,0 16.314593,0 0.322861,0.3331089 0.322862,0.3331079 0,14.7488568 0,14.748856 -0.333109,0.322861 -0.333108,0.322862 -16.314593,0 -16.3145933,0 -0.3228609,-0.333109 z m 31.5711272,-1.710803 1.137999,-1.134773 0,-12.226074 0,-12.2260698 -1.188445,-1.1853504 -1.188447,-1.1853513 -13.67669,0 -13.6766892,0 -1.1962883,1.1815542 -1.1962913,1.1815582 0,12.2266371 0,12.226641 1.134775,1.138003 1.1347731,1.138 13.7886497,0 13.788647,0 1.138007,-1.134775 z"
       id="path3407"
       inkscape:connector-curvature="0" />
    <path
       style="fill:#ffffff;fill-opacity:1"
       d="m 41.074933,17.526204 c -0.003,-7.986519 0.02906,-14.5209433 0.07129,-14.5209433 0.04223,0 0.905912,0.8300363 1.91929,1.8445254 l 1.842504,1.8445255 -0.0055,8.8883444 -0.0055,8.888346 -1.90831,3.788072 -1.908309,3.788072 -0.0055,-14.520942 z"
       id="path3409"
       inkscape:connector-curvature="0" />
    <path
       style="fill:#ffffff;fill-opacity:1"
       d="m 1.9765357,45.766718 c 0,-0.09351 1.0530274,-2.063459 2.3400618,-4.37766 l 2.3400628,-4.207637 8.3928087,-0.06694 c 9.908659,-0.07903 25.009818,-0.08875 25.009818,-0.01609 0,0.02804 -0.931866,1.914288 -2.070813,4.191652 -1.138947,2.277365 -2.070813,4.254522 -2.070813,4.393683 l 0,0.253019 -16.970563,0 c -15.8383308,0 -16.9705623,-0.01134 -16.9705623,-0.170024 l 0,-2e-6 z M 5.8584065,44.86887 c 0.087307,-0.08731 0.1587394,-0.266558 0.1587394,-0.398334 0,-0.356174 -0.3608275,-0.554097 -1.0101526,-0.554097 -0.6769749,0 -1.0101525,0.195132 -1.0101525,0.591616 0,0.42885 0.1698006,0.519552 0.9726324,0.519552 0.529128,0 0.7739072,-0.04371 0.8889343,-0.158739 l -1e-6,2e-6 z m 27.0007445,0.03247 c 0.230126,-0.297405 0.225095,-0.493994 -0.01888,-0.73797 l -0.246932,-0.246929 -12.523902,0 c -7.411,0 -12.6240556,0.03808 -12.7692156,0.09327 -0.3115846,0.118465 -0.4132251,0.488328 -0.2166403,0.788354 l 0.1504067,0.229549 12.7637312,0 c 10.091535,0 12.784187,-0.02644 12.861436,-0.126269 l -3e-6,0 z m 3.000789,-0.03247 c 0.08731,-0.08731 0.158737,-0.266558 0.158737,-0.398334 0,-0.356174 -0.360828,-0.554097 -1.010153,-0.554097 -0.676975,0 -1.010153,0.195132 -1.010153,0.591616 0,0.42885 0.169801,0.519552 0.972633,0.519552 0.529131,0 0.773907,-0.04371 0.888934,-0.158739 l 2e-6,2e-6 z M 5.8959266,42.886082 c 0.066671,-0.06667 0.1212193,-0.239405 0.1212193,-0.383857 0,-0.144451 -0.054548,-0.317188 -0.1212183,-0.383858 -0.066669,-0.06667 -0.2394062,-0.121218 -0.383858,-0.121218 -0.1444518,0 -0.3171879,0.05455 -0.383858,0.121218 -0.066671,0.06667 -0.1212183,0.239407 -0.1212183,0.383858 0,0.144452 0.054548,0.317188 0.1212183,0.383858 0.066669,0.06667 0.2394062,0.121219 0.383858,0.121219 0.1444518,0 0.3171879,-0.05455 0.383858,-0.121219 l -1e-6,-10e-7 z m 2.0588888,-0.131319 c 0.1762595,-0.386847 -0.028278,-0.757614 -0.4179465,-0.757614 -0.2116058,0 -0.3527483,0.0761 -0.4683522,0.252538 -0.1532826,0.233938 -0.1532816,0.271138 0,0.505076 0.1156029,0.176434 0.2567464,0.252539 0.4683522,0.252539 0.2250478,0 0.3324523,-0.0649 0.4179465,-0.252539 z m 1.9442013,0.0938 c 0.3249143,-0.324915 0.079511,-0.851416 -0.3968445,-0.851416 -0.2852853,0 -0.5555839,0.245726 -0.5555839,0.505076 0,0.259351 0.2702986,0.505077 0.5555839,0.505077 0.1309592,0 0.30954,-0.07143 0.3968455,-0.158739 l -10e-7,2e-6 z m 2.0368103,-0.0938 c 0.153282,-0.233938 0.153282,-0.271138 1e-6,-0.505076 -0.378662,-0.577912 -1.173391,-0.125019 -0.886299,0.505076 0.08549,0.187641 0.192899,0.252539 0.417946,0.252539 0.211606,0 0.352749,-0.07611 0.468353,-0.252539 l -1e-6,0 z m 1.940305,0.131319 c 0.06667,-0.06667 0.121219,-0.239405 0.121219,-0.383857 0,-0.144451 -0.05455,-0.317188 -0.121218,-0.383858 -0.06667,-0.06667 -0.239406,-0.121218 -0.383858,-0.121218 -0.144452,0 -0.317188,0.05455 -0.383858,0.121218 -0.06667,0.06667 -0.121219,0.239407 -0.121219,0.383858 0,0.144452 0.05455,0.317188 0.121219,0.383858 0.06667,0.06667 0.239406,0.121219 0.383858,0.121219 0.144452,0 0.317188,-0.05455 0.383858,-0.121219 l -10e-7,-10e-7 z m 2.020305,0 c 0.06667,-0.06667 0.121219,-0.239405 0.121219,-0.383857 0,-0.144451 -0.05455,-0.317188 -0.121218,-0.383858 -0.06667,-0.06667 -0.239406,-0.121218 -0.383858,-0.121218 -0.144452,0 -0.317188,0.05455 -0.383858,0.121218 -0.06667,0.06667 -0.121218,0.239407 -0.121218,0.383858 0,0.144452 0.05455,0.317188 0.121218,0.383858 0.06667,0.06667 0.239406,0.121219 0.383858,0.121219 0.144452,0 0.317188,-0.05455 0.383858,-0.121219 l -10e-7,-10e-7 z m 2.058889,-0.131319 c 0.176259,-0.386847 -0.02828,-0.757614 -0.417947,-0.757614 -0.211606,0 -0.352748,0.0761 -0.468352,0.252538 -0.153283,0.233938 -0.153282,0.271138 0,0.505076 0.115603,0.176434 0.256746,0.252539 0.468352,0.252539 0.225048,0 0.332452,-0.0649 0.417947,-0.252539 z m 1.944201,0.0938 c 0.324914,-0.324915 0.07951,-0.851416 -0.396845,-0.851416 -0.285285,0 -0.555584,0.245726 -0.555584,0.505076 0,0.259351 0.270299,0.505077 0.555584,0.505077 0.13096,0 0.30954,-0.07143 0.396846,-0.158739 l -1e-6,2e-6 z m 2.03681,-0.0938 c 0.153282,-0.233938 0.153282,-0.271138 10e-7,-0.505076 -0.378662,-0.577912 -1.17339,-0.125019 -0.886299,0.505076 0.08549,0.187641 0.192899,0.252539 0.417947,0.252539 0.211605,0 0.352748,-0.07611 0.468352,-0.252539 l -10e-7,0 z m 1.940305,0.131319 c 0.06667,-0.06667 0.121219,-0.239405 0.121219,-0.383857 0,-0.144451 -0.05455,-0.317188 -0.121218,-0.383858 -0.06667,-0.06667 -0.239406,-0.121218 -0.383858,-0.121218 -0.144452,0 -0.317188,0.05455 -0.383858,0.121218 -0.06667,0.06667 -0.121218,0.239407 -0.121218,0.383858 0,0.144452 0.05455,0.317188 0.121218,0.383858 0.06667,0.06667 0.239406,0.121219 0.383858,0.121219 0.144452,0 0.317188,-0.05455 0.383858,-0.121219 l -1e-6,-10e-7 z m 2.020305,0 c 0.06667,-0.06667 0.121219,-0.239405 0.121219,-0.383857 0,-0.144451 -0.05455,-0.317188 -0.121218,-0.383858 -0.06667,-0.06667 -0.239406,-0.121218 -0.383858,-0.121218 -0.144452,0 -0.317188,0.05455 -0.383858,0.121218 -0.06667,0.06667 -0.121218,0.239407 -0.121218,0.383858 0,0.144452 0.05455,0.317188 0.121218,0.383858 0.06667,0.06667 0.239406,0.121219 0.383858,0.121219 0.144452,0 0.317188,-0.05455 0.383858,-0.121219 l -10e-7,-10e-7 z m 1.982785,-0.03752 c 0.08731,-0.08731 0.158739,-0.226667 0.158739,-0.309688 0,-0.555521 -0.664483,-0.753841 -0.968934,-0.28919 -0.153282,0.233938 -0.153281,0.271138 0,0.505076 0.190254,0.290366 0.5697,0.334296 0.810196,0.0938 l -1e-6,2e-6 z m 2.020305,0 c 0.324915,-0.324915 0.07951,-0.851416 -0.396844,-0.851416 -0.285286,0 -0.555584,0.245726 -0.555584,0.505076 0,0.259351 0.270298,0.505077 0.555584,0.505077 0.130959,0 0.30954,-0.07143 0.396845,-0.158739 l -10e-7,2e-6 z m 2.036813,-0.0938 c 0.15328,-0.233938 0.15328,-0.271138 -2e-6,-0.505076 -0.378665,-0.577912 -1.17339,-0.125019 -0.886299,0.505076 0.08549,0.187641 0.192899,0.252539 0.417947,0.252539 0.211606,0 0.352748,-0.07611 0.468352,-0.252539 l 2e-6,0 z m 1.940302,0.131319 c 0.06667,-0.06667 0.121219,-0.239405 0.121219,-0.383857 0,-0.144451 -0.05455,-0.317188 -0.121218,-0.383858 -0.06667,-0.06667 -0.239406,-0.121218 -0.383858,-0.121218 -0.144452,0 -0.317188,0.05455 -0.383858,0.121218 -0.06667,0.06667 -0.121218,0.239407 -0.121218,0.383858 0,0.144452 0.05455,0.317188 0.121218,0.383858 0.06667,0.06667 0.239406,0.121219 0.383858,0.121219 0.144452,0 0.317188,-0.05455 0.383858,-0.121219 l -10e-7,-1e-6 z m 2.020305,0 c 0.06667,-0.06667 0.12122,-0.239405 0.12122,-0.383857 0,-0.144451 -0.05455,-0.317188 -0.121219,-0.383858 -0.06667,-0.06667 -0.239406,-0.121218 -0.383858,-0.121218 -0.144452,0 -0.317188,0.05455 -0.383858,0.121218 -0.06667,0.06667 -0.121218,0.239407 -0.121218,0.383858 0,0.144452 0.05455,0.317188 0.121218,0.383858 0.06667,0.06667 0.239406,0.121219 0.383858,0.121219 0.144452,0 0.317188,-0.05455 0.383858,-0.121219 l -10e-7,-1e-6 z M 6.9615749,40.765563 c 0.1616153,-0.256215 -0.00928,-0.677327 -0.3050035,-0.751547 -0.3169485,-0.07955 -0.5381244,0.03961 -0.6537616,0.352202 -0.1210153,0.327133 0.3079814,0.756129 0.6351142,0.635115 0.1254953,-0.04642 0.2711371,-0.152519 0.3236489,-0.235767 l 2e-6,-3e-6 z m 1.9597596,0.03649 c 0.1715127,-0.212868 0.1587293,-0.47527 -0.032469,-0.666469 -0.2386414,-0.23864 -0.619876,-0.196665 -0.8069553,0.08885 -0.3863611,0.589662 0.3959707,1.127992 0.8394247,0.577615 z m 2.0684415,-0.07748 c 0.234712,-0.515135 -0.472034,-0.991256 -0.874297,-0.588993 -0.1912126,0.191214 -0.2039082,0.452801 -0.03247,0.668965 0.26616,0.335594 0.736313,0.294132 0.906765,-0.07997 l 10e-7,-3e-6 z m 1.988568,-0.02408 c 0.143319,-0.267791 -0.08887,-0.6663 -0.410101,-0.703879 -0.56663,-0.06629 -0.803803,0.703689 -0.294549,0.95625 0.277612,0.13768 0.547666,0.04096 0.704651,-0.252372 l -10e-7,1e-6 z m 3.923196,0.157435 c 0.175617,-0.135883 0.157809,-0.532068 -0.03247,-0.722346 -0.388321,-0.388319 -1.11051,0.06424 -0.857355,0.537269 0.206071,0.385042 0.541287,0.454768 0.889825,0.18508 l 0,-3e-6 z m 2.020305,-0.05588 c 0.428733,-0.532106 -0.369599,-1.135644 -0.829692,-0.627246 -0.229367,0.253446 -0.134102,0.687969 0.176115,0.803291 0.264481,0.09832 0.47909,0.04051 0.653577,-0.176045 z m 2.068442,-0.07748 c 0.234712,-0.515135 -0.472035,-0.991256 -0.874298,-0.588993 -0.191212,0.191214 -0.203908,0.452801 -0.03247,0.668965 0.26616,0.335594 0.736313,0.294132 0.906766,-0.07997 l 1e-6,-3e-6 z m 1.988568,-0.02408 c 0.143318,-0.267791 -0.08886,-0.6663 -0.410102,-0.703879 -0.56663,-0.06629 -0.803803,0.703689 -0.294548,0.95625 0.277611,0.13768 0.547665,0.04096 0.704651,-0.252372 l -1e-6,10e-7 z m 3.923195,0.157435 c 0.175617,-0.135883 0.157809,-0.532068 -0.03247,-0.722346 -0.38832,-0.388319 -1.11051,0.06424 -0.857354,0.537269 0.20607,0.385042 0.541286,0.454768 0.889824,0.18508 l 0,-3e-6 z m 2.020305,-0.05588 c 0.428733,-0.532106 -0.369599,-1.135644 -0.829692,-0.627246 -0.229367,0.253446 -0.134102,0.687969 0.176115,0.803291 0.264481,0.09832 0.47909,0.04051 0.653577,-0.176045 z m 2.068439,-0.07748 c 0.234715,-0.515135 -0.472031,-0.991256 -0.874294,-0.588993 -0.191213,0.191214 -0.203909,0.452801 -0.03247,0.668965 0.26616,0.335594 0.736314,0.294132 0.906766,-0.07997 l -2e-6,-3e-6 z m 1.988571,-0.02408 c 0.143318,-0.267791 -0.08886,-0.6663 -0.410102,-0.703879 -0.56663,-0.06629 -0.803802,0.703689 -0.294548,0.95625 0.277614,0.13768 0.547665,0.04096 0.704651,-0.252372 l -10e-7,10e-7 z m 3.923195,0.157435 c 0.175617,-0.135883 0.157809,-0.532068 -0.03247,-0.722346 -0.388324,-0.388319 -1.11051,0.06424 -0.857355,0.537269 0.206073,0.385042 0.541286,0.454768 0.889824,0.18508 l 0,-3e-6 z m -22.016276,0.0078 c 0.06667,-0.06667 0.12122,-0.239405 0.12122,-0.383857 0,-0.144452 -0.05455,-0.317188 -0.121219,-0.383858 -0.06667,-0.06667 -0.239406,-0.121218 -0.383858,-0.121218 -0.144452,0 -0.317188,0.05455 -0.383858,0.121218 -0.06667,0.06667 -0.121218,0.239406 -0.121218,0.383858 0,0.144452 0.05455,0.317188 0.121218,0.383858 0.06667,0.06667 0.239406,0.121219 0.383858,0.121219 0.144452,0 0.317188,-0.05455 0.383858,-0.121219 l -1e-6,-10e-7 z m 10.00051,0 c 0.06667,-0.06667 0.12122,-0.239405 0.12122,-0.383857 0,-0.144452 -0.05455,-0.317188 -0.121219,-0.383858 -0.06667,-0.06667 -0.239406,-0.121218 -0.383857,-0.121218 -0.144452,0 -0.317188,0.05455 -0.383858,0.121218 -0.06667,0.06667 -0.121219,0.239406 -0.121219,0.383858 0,0.144452 0.05455,0.317188 0.121219,0.383858 0.06667,0.06667 0.239406,0.121219 0.383858,0.121219 0.144451,0 0.317187,-0.05455 0.383857,-0.121219 l -1e-6,-10e-7 z m 10.000511,0 c 0.06667,-0.06667 0.121219,-0.239405 0.121219,-0.383857 0,-0.144452 -0.05455,-0.317188 -0.121218,-0.383858 -0.06667,-0.06667 -0.239406,-0.121218 -0.383858,-0.121218 -0.144452,0 -0.317188,0.05455 -0.383858,0.121218 -0.06667,0.06667 -0.121219,0.239406 -0.121219,0.383858 0,0.144452 0.05455,0.317188 0.121219,0.383858 0.06667,0.06667 0.239406,0.121219 0.383858,0.121219 0.144452,0 0.317188,-0.05455 0.383858,-0.121219 l -1e-6,-10e-7 z M 7.8129446,38.910456 c 0.2658479,-0.186207 0.2901249,-0.511948 0.057327,-0.769186 -0.2272964,-0.251161 -0.5960152,-0.232519 -0.7867381,0.03978 -0.2078257,0.296711 -0.1983556,0.441495 0.04478,0.68463 0.2431356,0.243136 0.3879167,0.252606 0.6846299,0.04478 l 1e-6,0 z m 2.042781,-0.04478 c 0.1111167,-0.111117 0.2020304,-0.260101 0.2020304,-0.331076 0,-0.236734 -0.311832,-0.578061 -0.5281036,-0.578061 -0.2714381,0 -0.5830641,0.278311 -0.5830641,0.520733 0,0.224351 0.3444761,0.590435 0.5555839,0.590435 0.083338,0 0.2424366,-0.09091 0.3535534,-0.202031 z m 1.8682584,0.13775 c 0.277467,-0.106478 0.384167,-0.531351 0.20291,-0.807984 -0.182588,-0.278662 -0.512841,-0.309218 -0.77527,-0.07172 -0.25116,0.2273 -0.232519,0.596015 0.03978,0.786738 0.251829,0.176387 0.295379,0.183989 0.532584,0.09297 l -1e-6,3e-6 z m 2.088636,-0.102897 c 0.378572,-0.342604 0.15114,-0.94399 -0.356997,-0.94399 -0.446199,0 -0.62234,0.688859 -0.243917,0.953917 0.28365,0.198675 0.372023,0.197215 0.600914,-0.0099 l 0,2e-6 z m 1.98053,0.0099 c 0.378422,-0.265058 0.20228,-0.953917 -0.243919,-0.953917 -0.494587,0 -0.735732,0.599686 -0.382989,0.952429 0.199729,0.199729 0.343388,0.200072 0.626907,0.0015 l 1e-6,0 z m 2.020305,0 c 0.265848,-0.186207 0.290125,-0.511948 0.05733,-0.769186 -0.227296,-0.251161 -0.596015,-0.232519 -0.786738,0.03978 -0.207826,0.296711 -0.198356,0.441495 0.04478,0.68463 0.243136,0.243136 0.387917,0.252606 0.68463,0.04478 l 1e-6,0 z m 2.042781,-0.04478 c 0.111117,-0.111117 0.20203,-0.260101 0.20203,-0.331076 0,-0.236734 -0.311832,-0.578061 -0.528103,-0.578061 -0.271439,0 -0.583065,0.278311 -0.583065,0.520733 0,0.224351 0.344477,0.590435 0.555584,0.590435 0.08334,0 0.242437,-0.09091 0.353554,-0.202031 z m 1.868258,0.13775 c 0.277467,-0.106478 0.384167,-0.531351 0.20291,-0.807984 -0.182588,-0.278662 -0.512841,-0.309218 -0.77527,-0.07172 -0.25116,0.2273 -0.232519,0.596015 0.03978,0.786738 0.251829,0.176387 0.29538,0.183989 0.532584,0.09297 l -1e-6,3e-6 z m 2.088637,-0.102897 c 0.378571,-0.342604 0.15114,-0.94399 -0.356997,-0.94399 -0.4462,0 -0.622341,0.688859 -0.243918,0.953917 0.28365,0.198675 0.372023,0.197215 0.600915,-0.0099 l 0,2e-6 z m 1.980529,0.0099 c 0.378422,-0.265058 0.20228,-0.953917 -0.243919,-0.953917 -0.494586,0 -0.735732,0.599686 -0.382989,0.952429 0.19973,0.199729 0.343388,0.200072 0.626907,0.0015 l 10e-7,0 z m 2.020305,0 c 0.265848,-0.186207 0.290125,-0.511948 0.05733,-0.769186 -0.227296,-0.251161 -0.596015,-0.232519 -0.786738,0.03978 -0.207826,0.296711 -0.198355,0.441495 0.04478,0.68463 0.243136,0.243136 0.387917,0.252606 0.68463,0.04478 l 10e-7,0 z m 2.042781,-0.04478 c 0.111117,-0.111117 0.202031,-0.260101 0.202031,-0.331076 0,-0.236734 -0.311833,-0.578061 -0.528104,-0.578061 -0.271438,0 -0.583064,0.278311 -0.583064,0.520733 0,0.224351 0.344476,0.590435 0.555584,0.590435 0.08334,0 0.242436,-0.09091 0.353553,-0.202031 z m 1.96312,0.06788 c 0.361833,-0.264579 0.160921,-0.977019 -0.275529,-0.977019 -0.519424,0 -0.764681,0.664805 -0.351916,0.953917 0.274347,0.192161 0.390399,0.196435 0.627442,0.0231 l 3e-6,-1e-6 z m 1.993775,-0.03303 c 0.378572,-0.342604 0.15114,-0.94399 -0.356997,-0.94399 -0.446197,0 -0.622341,0.688859 -0.243918,0.953917 0.283647,0.198675 0.372023,0.197215 0.600915,-0.0099 l 0,2e-6 z m 1.980526,0.0099 c 0.378425,-0.265058 0.202283,-0.953917 -0.243915,-0.953917 -0.49459,0 -0.735733,0.599686 -0.38299,0.952429 0.199733,0.199729 0.343389,0.200072 0.626907,0.0015 l -2e-6,0 z m 2.020305,0 c 0.265851,-0.186207 0.290128,-0.511948 0.05733,-0.769186 -0.227299,-0.251161 -0.596015,-0.232519 -0.786738,0.03978 -0.207825,0.296711 -0.198355,0.441495 0.04478,0.68463 0.243136,0.243136 0.387917,0.252606 0.68463,0.04478 l -2e-6,0 z"
       id="path3411"
       inkscape:connector-curvature="0" />
    <path
       style="fill:#ffffff;fill-opacity:1"
       d="m 37.012075,45.803409 c 0.0018,-0.151094 0.220218,-0.605048 1.99803,-4.151786 l 1.996061,-3.982143 0.002,2.267984 0.002,2.267984 -1.884053,1.883802 c -1.714429,1.714198 -1.894494,1.883802 -2.000001,1.883802 -0.114789,0 -0.115927,-0.0017 -0.113976,-0.169643 l 0,0 z"
       id="path3421"
       inkscape:connector-curvature="0" />
    <path
       style="fill:#ffffff"
       d="m 23.713837,22.627229 0,-1.285714 0.723214,6.2e-4 c 0.944496,8.1e-4 1.242652,0.06124 1.544643,0.313058 0.272931,0.227587 0.390803,0.566409 0.367912,1.057553 -0.02478,0.531572 -0.222549,0.851167 -0.643679,1.040159 -0.187062,0.08395 -0.295146,0.104658 -0.670065,0.128388 -0.245863,0.01556 -0.6439,0.02905 -0.884525,0.02997 l -0.4375,0.0017 0,-1.285715 0,-1.9e-5 z"
       id="path3065"
       inkscape:connector-curvature="0" />
    <path
       style="fill:#000000;fill-opacity:1;stroke:#ff0000;stroke-width:0.05303301000000000;stroke-miterlimit:4;stroke-opacity:1;stroke-dasharray:none"
       d="m 8.8623257,30.066226 -0.860128,-0.863368 0,-11.711533 0,-11.7115332 0.8633677,-0.8601282 0.8633677,-0.860128 13.2583289,0 13.258329,0 0.860128,0.8633677 0.860129,0.8633677 0,11.711533 0,11.711533 -0.863368,0.860128 -0.863368,0.860128 -13.258329,0 -13.2583291,0 -0.8601282,-0.863367 0,0 z"
       id="path3102" />
  </g>
  <g
     style="display:inline;opacity:1"
     inkscape:label="Text"
     id="g2910"
     inkscape:groupmode="layer"
     sodipodi:insensitive="true">
    <text
       sodipodi:linespacing="125%"
       id="text3038"
       y="17.392376"
       x="9.3944197"
       style="font-size:14px;font-style:normal;font-variant:normal;font-weight:normal;font-stretch:normal;text-align:start;line-height:125%;writing-mode:lr-tb;text-anchor:start;fill:#000000;fill-opacity:1;stroke:none;font-family:Serif;-inkscape-font-specification:Serif"
       xml:space="preserve"><tspan
         y="17.392376"
         x="9.3944197"
         id="tspan3040"
         sodipodi:role="line">X</tspan></text>
    <text
       sodipodi:linespacing="125%"
       id="text3042"
       y="27.796949"
       x="9.2934036"
       style="font-size:10px;font-style:normal;font-variant:normal;font-weight:normal;font-stretch:normal;text-align:start;line-height:125%;writing-mode:lr-tb;text-anchor:start;fill:#000000;fill-opacity:1;stroke:none;font-family:Bitstream Vera Sans;-inkscape-font-specification:Bitstream Vera Sans"
       xml:space="preserve"><tspan
         y="27.796949"
         x="9.2934036"
         id="tspan3044"
         sodipodi:role="line">TERM</tspan></text>
    <path
       inkscape:connector-curvature="0"
       id="path3046"
       d="m 9.5526798,17.051422 c 0,-0.291414 0.012672,-0.298674 0.5730382,-0.3283 l 0.573038,-0.03029 1.447267,-2.112707 c 0.795996,-1.161989 1.447267,-2.150845 1.447267,-2.197458 0,-0.04661 -0.666403,-1.084633 -1.480896,-2.30671 l -1.480897,-2.2219601 -0.539409,0 c -0.5319987,0 -0.5394082,-0.00416 -0.5394082,-0.3030457 l 0,-0.3030458 1.9697972,0 1.969798,0 0,0.3030458 c 0,0.3004678 -0.0048,0.3030457 -0.562991,0.3030457 -0.426254,0 -0.555058,0.033744 -0.53033,0.1389354 0.05701,0.2425275 2.048506,3.1903677 2.153981,3.1883587 0.08662,-0.0017 2.161602,-2.9773449 2.256007,-3.2352914 0.01852,-0.0506 -0.265585,-0.092003 -0.631345,-0.092003 l -0.665017,0 0,-0.3030457 0,-0.3030458 1.616244,0 1.616244,0 0,0.3030458 c 0,0.2987657 -0.0076,0.3030457 -0.537745,0.3030457 l -0.537743,0 -1.356292,1.9811789 c -0.745961,1.0896465 -1.344823,2.0218295 -1.330804,2.0715155 0.01402,0.04969 0.737262,1.158258 1.607206,2.463493 l 1.581716,2.373155 0.539369,0 c 0.531956,0 0.539369,0.0042 0.539369,0.303046 l 0,0.303046 -1.969797,0 -1.969798,0 0,-0.298224 c 0,-0.293799 0.009,-0.298674 0.605837,-0.328301 l 0.605837,-0.03007 -1.229884,-1.847219 c -0.991603,-1.489336 -1.254301,-1.822041 -1.35592,-1.71726 -0.06932,0.07148 -0.655072,0.902727 -1.301671,1.847219 l -1.175634,1.71726 0.663027,0.02987 c 0.660334,0.02975 0.663027,0.03108 0.663027,0.328301 l 0,0.29843 -1.616244,0 -1.6162442,0 0,-0.298005 z"
       style="fill:#ff0000;fill-opacity:1" />
    <path
       inkscape:connector-curvature="0"
       id="path3048"
       d="m 11.876031,24.52151 0,-3.232488 -1.262691,0 -1.2626907,0 0,-0.353554 0,-0.353553 3.0304577,0 3.030458,0 0,0.353553 0,0.353554 -1.313199,0 -1.313198,0 0,3.232488 0,3.232488 -0.454569,0 -0.454568,0 0,-3.232488 z"
       style="fill:#ff0000;fill-opacity:1" />
    <path
       inkscape:connector-curvature="0"
       id="path3050"
       d="m 22.785678,24.167957 0,-3.586042 1.452021,0 c 1.046692,0 1.574606,0.04325 1.89116,0.154937 0.857806,0.30265 1.202506,0.846629 1.202506,1.897693 0,0.757275 -0.245354,1.214999 -0.816694,1.523596 l -0.35587,0.192215 0.450339,0.464384 c 0.281556,0.290335 0.686542,0.928171 1.080554,1.701821 l 0.630213,1.237437 -0.469017,-0.0018 -0.469018,-0.0018 -0.659768,-1.28423 c -0.832765,-1.620966 -0.985152,-1.742574 -2.183597,-1.742574 l -0.843692,0 0,1.515228 0,1.515229 -0.454568,0 -0.454569,0 0,-3.586041 z m 3.043433,-0.41077 c 0.541512,-0.280028 0.749304,-1.148845 0.433788,-1.813748 -0.231345,-0.487521 -0.664757,-0.654417 -1.699466,-0.654417 l -0.868618,0 0,1.313198 0,1.313198 0.914153,0 c 0.632237,0 1.008518,-0.0488 1.220142,-0.158232 l 1e-6,10e-7 z"
       style="fill:#e5ff2e;fill-opacity:1" />
    <path
       inkscape:connector-curvature="0"
       id="path3052"
       d="m 29.755731,24.167957 0,-3.586042 0.681853,7.98e-4 0.681853,7.96e-4 0.80232,2.145778 c 0.441279,1.180177 0.866212,2.302721 0.9443,2.494543 l 0.141978,0.348765 0.935149,-2.470086 0.93515,-2.470086 0.721694,-0.02968 0.721694,-0.02968 0,3.590466 0,3.590468 -0.45315,0 -0.45315,0 -0.02667,-3.207234 -0.02667,-3.207235 -0.94872,2.500128 -0.948719,2.500128 -0.466277,0 -0.466276,0 -0.894982,-2.399113 c -0.492238,-1.319511 -0.93509,-2.442296 -0.984114,-2.495077 -0.05165,-0.0556 -0.08914,1.250775 -0.08914,3.10622 l 0,3.202183 -0.404061,0 -0.404061,0 0,-3.586041 z"
       style="fill:#00ffff;fill-opacity:1" />
    <path
       inkscape:connector-curvature="0"
       id="path3054"
       d="m 16.421717,24.167957 0,-3.586042 2.272843,0 2.272844,0 0,0.353553 0,0.353554 -1.818275,0 -1.818275,0 0,1.111168 0,1.111167 1.71726,0 1.717259,0 0,0.404061 0,0.404061 -1.717259,0 -1.71726,0 0,1.363706 0,1.363706 1.868783,0 1.868782,0 0,0.353554 0,0.353553 -2.323351,0 -2.323351,0 0,-3.586041 z"
       style="fill:#ff0000;fill-opacity:1" />
    <path
       inkscape:connector-curvature="0"
       id="path3056"
       d="m 11.876031,24.52151 0,-3.232488 -1.262691,0 -1.2626907,0 0,-0.353554 0,-0.353553 3.0304577,0 3.030458,0 0,0.353553 0,0.353554 -1.313199,0 -1.313198,0 0,3.232488 0,3.232488 -0.454569,0 -0.454568,0 0,-3.232488 z"
       style="fill:#ff00ff;fill-opacity:1" />
    <path
       inkscape:connector-curvature="0"
       id="path3078"
       d="m 11.971738,24.496693 0,-3.232488 -1.262691,0 -1.2626908,0 0,-0.303046 0,-0.303045 2.9799498,0 2.97995,0 0,0.303045 0,0.303046 -1.313198,0 -1.313198,0 0,3.232488 0,3.232488 -0.404061,0 -0.404061,0 0,-3.232488 0,0 z"
       style="fill:#ffffff" />
    <path
       inkscape:connector-curvature="0"
       id="path3080"
       d="m 16.517424,24.193648 0,-3.535534 2.222336,0 2.222335,0 0,0.303045 0,0.303046 -1.818274,0 -1.818275,0 0,1.161676 0,1.161675 1.717259,0 1.71726,0 0,0.353553 0,0.353554 -1.71726,0 -1.717259,0 0,1.414213 0,1.414214 1.868782,0 1.868782,0 0,0.303046 0,0.303045 -2.272843,0 -2.272843,0 0,-3.535533 0,0 z"
       style="fill:#ff2a2a" />
    <path
       inkscape:connector-curvature="0"
       id="path3082"
       d="m 16.517424,24.193648 0,-3.535534 2.222336,0 2.222335,0 0,0.303045 0,0.303046 -1.818274,0 -1.818275,0 0,1.161676 0,1.161675 1.717259,0 1.71726,0 0,0.353553 0,0.353554 -1.71726,0 -1.717259,0 0,1.414213 0,1.414214 1.868782,0 1.868782,0 0,0.303046 0,0.303045 -2.272843,0 -2.272843,0 0,-3.535533 0,0 z"
       style="fill:#a0892c" />
    <path
       inkscape:connector-curvature="0"
       id="path3084"
       d="m 16.556963,24.193648 0,-3.535534 2.171828,0 2.171828,0 0,0.303045 0,0.303046 -1.818275,0 -1.818274,0 0,1.161676 0,1.161675 1.717259,0 1.717259,0 0,0.353553 0,0.353554 -1.717259,0 -1.717259,0 0,1.414213 0,1.414214 1.868782,0 1.868782,0 0,0.303046 0,0.303045 -2.222335,0 -2.222336,0 0,-3.535533 0,0 z"
       style="fill:#c8ab37" />
    <path
       inkscape:connector-curvature="0"
       id="path3088"
       d="m 29.789961,24.193648 0,-3.535534 0.647757,0 0.647757,0 0.297145,0.782868 c 0.163429,0.430577 0.583286,1.546596 0.933015,2.480041 0.349728,0.933446 0.671885,1.660755 0.715904,1.616244 0.04402,-0.04451 0.48491,-1.149165 0.979759,-2.454787 l 0.899725,-2.373859 0.671958,-0.02987 0.671957,-0.02987 0,3.540149 0,3.540149 -0.404061,0 -0.404061,0 0,-3.252691 c 0,-1.903764 -0.03726,-3.212893 -0.08986,-3.156726 -0.04942,0.05278 -0.47753,1.118744 -0.951352,2.368807 -0.473822,1.250064 -0.892819,2.352393 -0.931103,2.44962 -0.05086,0.129165 -0.182327,0.17631 -0.488116,0.175044 l -0.418507,-0.0017 -0.729866,-1.95387 c -0.401426,-1.074628 -0.82958,-2.176177 -0.951454,-2.447886 l -0.221587,-0.494017 -0.07647,0.454569 c -0.04206,0.250012 -0.07983,1.670539 -0.08395,3.156726 l -0.0075,2.702158 -0.353553,0 -0.353554,0 0,-3.535533 1.7e-5,-3.2e-5 z"
       style="fill:#87decd" />
    <path
       inkscape:connector-curvature="0"
       id="path3090"
       d="m 29.789961,24.188827 0,-3.540354 0.624241,0.03007 0.624241,0.03007 0.180474,0.454569 c 0.09926,0.250013 0.49978,1.290351 0.890044,2.311862 0.390263,1.021512 0.763264,1.921992 0.82889,2.001068 0.127897,0.154106 0.464622,-0.604185 1.466622,-3.302778 0.257864,-0.694479 0.495603,-1.291139 0.528309,-1.325909 0.03271,-0.03477 0.34357,-0.08728 0.69081,-0.11669 l 0.631346,-0.05347 0,3.525955 0,3.525954 -0.404061,0 -0.404061,0 0,-3.252691 c 0,-2.03656 -0.0356,-3.216811 -0.0952,-3.156726 -0.05236,0.05278 -0.484802,1.096015 -0.960982,2.3183 -0.476179,1.222284 -0.903901,2.290521 -0.950493,2.373858 -0.103394,0.184938 -0.922767,0.270672 -0.922767,0.09655 0,-0.130846 -1.580732,-4.274854 -1.751516,-4.591731 -0.101579,-0.188472 -0.113449,-0.181693 -0.176886,0.101016 -0.0374,0.166675 -0.07338,1.60993 -0.07995,3.207234 l -0.01195,2.904188 -0.353553,0 -0.353554,0 0,-3.540354 -4e-6,9e-6 z"
       style="fill:#87decd" />
    <path
       inkscape:connector-curvature="0"
       id="path3092"
       d="m 29.789961,24.188827 0,-3.540354 0.630129,0.03007 0.630128,0.03007 0.728934,1.91929 c 0.782964,2.061552 1.136476,2.878935 1.245118,2.878935 0.05389,0 1.304263,-3.086591 1.810758,-4.469925 0.08915,-0.243497 0.155021,-0.277962 0.533526,-0.279171 0.237498,-7.59e-4 0.534093,-0.02879 0.659099,-0.06229 l 0.227285,-0.06091 0,3.547315 0,3.547315 -0.404061,0 -0.404061,0 0,-3.114637 c 0,-1.71305 -0.03036,-3.144996 -0.06747,-3.182103 -0.0758,-0.0758 -0.586377,1.10733 -1.361346,3.154589 -0.286143,0.755911 -0.564581,1.431206 -0.618752,1.500654 -0.114679,0.147019 -0.881878,0.172722 -0.881878,0.02954 0,-0.184893 -1.747697,-4.650992 -1.82005,-4.650992 -0.150565,0 -0.198064,0.837254 -0.199143,3.51028 l -0.0011,2.752665 -0.353553,0 -0.353554,0 0,-3.540354 -9e-6,1.3e-5 z"
       style="fill:#87decd" />
    <path
       inkscape:connector-curvature="0"
       id="path3094"
       d="m 29.789961,24.188827 0,-3.540354 0.626288,0.03007 0.626288,0.03007 0.867281,2.222336 c 1.104685,2.830663 1.037804,2.71583 1.290072,2.215015 0.109915,-0.218207 0.530929,-1.260421 0.935588,-2.31603 0.404658,-1.05561 0.762973,-1.947529 0.796255,-1.982044 0.03328,-0.03451 0.344619,-0.09064 0.691859,-0.12472 l 0.631346,-0.06197 0,3.533985 0,3.533985 -0.404061,0 -0.404061,0 0,-3.075003 c 0,-1.753747 -0.03977,-3.099583 -0.09256,-3.132208 -0.05091,-0.03146 -0.490998,0.954541 -0.977979,2.19112 -0.486981,1.236578 -0.928193,2.305146 -0.98047,2.374594 -0.05228,0.06945 -0.259948,0.126191 -0.461489,0.126095 L 32.56788,26.213595 31.873242,24.37024 c -0.382051,-1.013845 -0.809889,-2.093368 -0.950751,-2.398939 l -0.256114,-0.555584 -0.07717,0.454569 c -0.04244,0.250012 -0.08054,1.670539 -0.08465,3.156726 l -0.0075,2.702158 -0.353553,0 -0.353554,0 0,-3.540354 1.1e-5,1.1e-5 z"
       style="fill:#3dc1ff;fill-opacity:1;fill-rule:nonzero" />
    <path
       inkscape:connector-curvature="0"
       id="path3096"
       d="m 16.556963,24.193648 0,-3.535534 2.171828,0 2.171828,0 0,0.303045 0,0.303046 -1.818275,0 -1.818274,0 0,1.161676 0,1.161675 1.717259,0 1.717259,0 0,0.353553 0,0.353554 -1.717259,0 -1.717259,0 0,1.414213 0,1.414214 1.868782,0 1.868782,0 0,0.303046 0,0.303045 -2.222335,0 -2.222336,0 0,-3.535533 0,0 z"
       style="fill:#07ff01;fill-opacity:1" />
    <path
       inkscape:connector-curvature="0"
       id="path3098"
       d="m 9.6051385,17.097326 c 0.027178,-0.191365 0.1245446,-0.243249 0.6160905,-0.3283 l 0.583811,-0.101015 1.413575,-2.118147 c 0.812805,-1.217935 1.390021,-2.179526 1.358155,-2.262568 -0.03048,-0.07943 -0.696041,-1.115004 -1.479023,-2.3012707 l -1.423603,-2.156849 -0.383832,0 c -0.5142392,0 -0.7034016,-0.084403 -0.7034016,-0.3138533 0,-0.1809354 0.1036338,-0.191223 1.9263156,-0.191223 l 1.926315,0 -0.03228,0.2272843 c -0.02648,0.1864639 -0.104849,0.2324548 -0.436341,0.2560728 -0.645727,0.046007 -0.685649,0.076693 -0.518724,0.3987116 0.210656,0.4063792 1.666263,2.5643773 1.904847,2.8240163 l 0.203134,0.221059 0.228259,-0.271566 c 0.483598,-0.57535 2.063712,-2.9804807 2.012521,-3.063309 -0.02964,-0.047956 -0.323946,-0.087193 -0.654018,-0.087193 -0.572795,0 -0.60013,-0.011503 -0.60013,-0.2525382 l 0,-0.2525381 1.565737,0 c 1.468896,0 1.565736,0.011827 1.565736,0.191223 0,0.2290799 -0.189137,0.3138533 -0.700237,0.3138533 l -0.380668,0 -1.338989,2.0135806 c -0.736444,1.1074694 -1.322828,2.0553304 -1.303076,2.1063574 0.01975,0.05103 0.740495,1.167439 1.60165,2.480915 l 1.565736,2.388138 0.53033,6.87e-4 c 0.49816,6.39e-4 0.530331,0.016 0.530331,0.253218 l 0,0.252538 -1.926316,0 -1.926316,0 0.03228,-0.227284 c 0.02719,-0.191457 0.124495,-0.243208 0.617277,-0.3283 l 0.584997,-0.101015 -1.191089,-1.766507 c -0.655099,-0.971579 -1.259274,-1.777991 -1.342611,-1.792027 -0.09572,-0.01612 -0.608384,0.634391 -1.392156,1.766507 l -1.240633,1.792027 0.659795,0.08757 c 0.603305,0.08008 0.659795,0.108185 0.659795,0.3283 l 0,0.240725 -1.572762,0 -1.572762,0 0.03228,-0.227284 5e-7,4e-6 z"
       style="fill:#ff7600;fill-opacity:1" />
  </g>
</svg>
