/* XPM */
static char * xterm_color_16x16_xpm[] = {
"16 16 80 1",
".	c None",
" 	c #555500",
"+	c #545400",
"@	c #3A3A00",
"#	c #222200",
"$	c #2A2A00",
"%	c #2B2B00",
"&	c #151500",
"*	c #5E5E00",
"=	c #5A5A00",
"-	c #909098",
";	c #3E3E3E",
">	c #000000",
",	c #F2F2F2",
"'	c #2E2E36",
")	c #343400",
"!	c #4C0000",
"~	c #140000",
"{	c #7C0000",
"]	c #7F7F7F",
"^	c #858588",
"/	c #EA0000",
"(	c #0B0000",
"_	c #460000",
":	c #8E0000",
"<	c #A80000",
"[	c #474747",
"}	c #868686",
"|	c #404548",
"1	c #8F3400",
"2	c #451200",
"3	c #299000",
"4	c #1F6C00",
"5	c #192E48",
"6	c #1B3448",
"7	c #888888",
"8	c #CF4C00",
"9	c #3B0700",
"0	c #39C700",
"a	c #42E800",
"b	c #2D5181",
"c	c #55A3E3",
"d	c #305C81",
"e	c #989898",
"f	c #D84F00",
"g	c #3A0600",
"h	c #258100",
"i	c #376599",
"j	c #396D99",
"k	c #7E7E7E",
"l	c #010100",
"m	c #000101",
"n	c #9A9A9A",
"o	c #101000",
"p	c #5B5B00",
"q	c #3D3D00",
"r	c #272700",
"s	c #2F2F00",
"t	c #303000",
"u	c #1A1A00",
"v	c #464636",
"w	c #7A7A7F",
"x	c #8B8B90",
"y	c #1B1B00",
"z	c #0F0F00",
"A	c #FFFFFF",
"B	c #5B5B5B",
"C	c #C9C9C9",
"D	c #BFBFBF",
"E	c #B5B5B5",
"F	c #5C5C5C",
"G	c #79797F",
"H	c #7F7F88",
"I	c #484835",
"J	c #3C3C00",
"K	c #1E1E00",
"L	c #909090",
"M	c #333336",
"N	c #464600",
"O	c #575700",
".+@#$$$$$$$$%&*+",
".=-;>>>>>>>>>,')",
".=>!~{>>>>>>>>]^",
".=>>/(>>>>>>>>]]",
".=>_:<>>>>>>>>]]",
".=>>>>>>>>>>>>]]",
".=>[}|12345>6>]]",
".=>>7>890abcd>]]",
".=>>e>fgh0i>j>k^",
".=>>>l>>>>>m>>no",
".=-;>>>>>>>>>,>p",
".+qrsssssssstu*.",
".pvwwwwwwwwwwxy.",
"+zABABCDDDEAFG*.",
"*HBABAEDDDCBAIJ.",
"KL]]]]]]]]]]MNO."};
